<svg width="535" height="372" viewBox="0 0 535 372" fill="none" xmlns="http://www.w3.org/2000/svg">
<rect x="0.5" y="0.5" width="534" height="371" fill="white" stroke="black"/>
<path d="M11.166 10.9705L11.166 360.032" stroke="#394353" stroke-width="2"/>
<path d="M523.832 9.97314V359.035" stroke="#394353" stroke-width="2"/>
<path d="M10.1523 10.9705L524.849 10.9705" stroke="#394353" stroke-width="2"/>
<path d="M19.2891 38.8953L19.2891 330.112" stroke="#394353" stroke-width="2"/>
<path d="M515.711 38.8953V330.112" stroke="#394353" stroke-width="2"/>
<path d="M10.1523 359.035L524.849 359.035" stroke="#394353" stroke-width="2"/>
<path d="M40.6074 350.059L494.393 350.059" stroke="#394353" stroke-width="2"/>
<path d="M40.6074 18.9492L494.393 18.9492" stroke="#394353" stroke-width="2"/>
<path d="M41.625 10.9705C40.9952 36.2131 15.4287 42.3369 11.1696 40.6219" stroke="#394353" stroke-width="2"/>
<path d="M16.2441 10.9705C16.1392 15.1776 11.8781 16.1982 11.1682 15.9124" stroke="#394353" stroke-width="2"/>
<rect x="14.7148" y="18.4519" width="1.03036" height="9.97051" rx="0.51518" fill="#394353" stroke="#394353"/>
<rect x="18.7741" y="15.4586" width="0.997319" height="10.1697" rx="0.49866" transform="rotate(-90 18.7741 15.4586)" fill="#394353" stroke="#394353" stroke-width="0.997319"/>
<path d="M15.2295 30.4194C16.0831 30.4194 16.7598 31.0974 16.7598 31.9146C16.7595 32.7315 16.0829 33.4087 15.2295 33.4087C14.3761 33.4086 13.6995 32.7314 13.6992 31.9146C13.6992 31.0974 14.3759 30.4195 15.2295 30.4194Z" fill="#394353" stroke="#394353"/>
<path d="M33.5029 13.4651C34.3565 13.4651 35.0332 14.1431 35.0332 14.9602C35.0329 15.7771 34.3564 16.4543 33.5029 16.4543C32.6495 16.4543 31.9729 15.7771 31.9727 14.9602C31.9727 14.1431 32.6494 13.4651 33.5029 13.4651Z" fill="#394353" stroke="#394353"/>
<path d="M26.6831 25.199C28.0555 25.12 29.1808 26.1023 29.2541 27.3301C29.3273 28.5579 28.3265 29.6627 26.9542 29.7417C25.5818 29.8208 24.4565 28.8385 24.3832 27.6106C24.31 26.3828 25.3107 25.278 26.6831 25.199Z" fill="#394353" stroke="#394353"/>
<path d="M27.4604 25.0839L24.2065 27.6048L20.0694 19.6976L27.4604 25.0839Z" fill="#394353" stroke="#394353"/>
<path d="M11.166 328.118C36.8607 328.737 43.0942 353.853 41.3485 358.037" stroke="#394353" stroke-width="2"/>
<path d="M11.166 353.051C15.4485 353.154 16.4874 357.34 16.1964 358.037" stroke="#394353" stroke-width="2"/>
<rect x="18.7721" y="354.547" width="0.997319" height="10.1697" rx="0.49866" transform="rotate(-90 18.7721 354.547)" fill="#394353" stroke="#394353" stroke-width="0.997319"/>
<rect x="15.7422" y="350.556" width="1.03036" height="9.97051" rx="0.51518" transform="rotate(-180 15.7422 350.556)" fill="#394353" stroke="#394353"/>
<path d="M30.9551 354.048C30.9553 353.231 31.632 352.554 32.4854 352.553C33.3388 352.553 34.0154 353.231 34.0156 354.048C34.0156 354.865 33.339 355.543 32.4854 355.543C31.6318 355.543 30.9551 354.865 30.9551 354.048Z" fill="#394353" stroke="#394353"/>
<path d="M13.6973 336.096C13.6975 335.279 14.3741 334.602 15.2275 334.602C16.081 334.602 16.7575 335.279 16.7578 336.096C16.7578 336.913 16.0811 337.591 15.2275 337.591C14.374 337.591 13.6973 336.913 13.6973 336.096Z" fill="#394353" stroke="#394353"/>
<path d="M25.6416 342.798C25.5625 341.471 26.5493 340.353 27.8207 340.28C29.092 340.207 30.2042 341.204 30.2834 342.531C30.3623 343.858 29.3763 344.975 28.1052 345.048C26.8339 345.121 25.721 344.125 25.6416 342.798Z" fill="#394353" stroke="#394353"/>
<path d="M25.5376 342.034L28.0997 345.226L20.0614 349.285L25.5376 342.034Z" fill="#394353" stroke="#394353"/>
<path d="M523.836 328.118C498.141 328.737 491.908 353.853 493.653 358.037" stroke="#394353" stroke-width="2"/>
<path d="M523.836 353.051C519.553 353.154 518.515 357.34 518.806 358.038" stroke="#394353" stroke-width="2"/>
<rect x="-0.49866" y="-0.49866" width="0.997319" height="10.1697" rx="0.49866" transform="matrix(0 -1 -1 0 515.731 354.048)" fill="#394353" stroke="#394353" stroke-width="0.997319"/>
<rect x="0.5" y="-0.5" width="1.03036" height="9.97051" rx="0.51518" transform="matrix(1 0 0 -1 518.76 350.056)" fill="#394353" stroke="#394353"/>
<path d="M504.047 354.048C504.047 353.231 503.37 352.554 502.517 352.554C501.663 352.554 500.987 353.231 500.986 354.048C500.986 354.865 501.663 355.543 502.517 355.543C503.37 355.543 504.047 354.865 504.047 354.048Z" fill="#394353" stroke="#394353"/>
<path d="M521.305 336.096C521.304 335.279 520.628 334.602 519.774 334.602C518.921 334.602 518.244 335.279 518.244 336.096C518.244 336.913 518.921 337.591 519.774 337.591C520.628 337.591 521.305 336.913 521.305 336.096Z" fill="#394353" stroke="#394353"/>
<path d="M509.362 342.798C509.441 341.471 508.455 340.354 507.183 340.28C505.912 340.207 504.8 341.204 504.721 342.531C504.642 343.858 505.628 344.975 506.899 345.048C508.17 345.121 509.283 344.125 509.362 342.798Z" fill="#394353" stroke="#394353"/>
<path d="M509.464 342.034L506.902 345.226L514.941 349.285L509.464 342.034Z" fill="#394353" stroke="#394353"/>
<path d="M523.836 40.8901C498.141 40.2714 491.908 15.1547 493.653 10.9706" stroke="#394353" stroke-width="2"/>
<path d="M523.836 15.957C519.553 15.8539 518.515 11.6678 518.806 10.9704" stroke="#394353" stroke-width="2"/>
<rect x="516.23" y="14.4611" width="0.997319" height="10.1697" rx="0.49866" transform="rotate(90 516.23 14.4611)" fill="#394353" stroke="#394353" stroke-width="0.997319"/>
<rect x="519.26" y="18.4517" width="1.03036" height="9.97051" rx="0.51518" fill="#394353" stroke="#394353"/>
<path d="M504.047 14.96C504.047 15.7769 503.37 16.4541 502.517 16.4541C501.663 16.4541 500.987 15.7769 500.986 14.96C500.986 14.1428 501.663 13.4648 502.517 13.4648C503.37 13.4649 504.047 14.1429 504.047 14.96Z" fill="#394353" stroke="#394353"/>
<path d="M521.305 32.9119C521.304 33.7288 520.628 34.406 519.774 34.406C518.921 34.406 518.244 33.7288 518.244 32.9119C518.244 32.0947 518.921 31.4167 519.774 31.4167C520.628 31.4168 521.305 32.0948 521.305 32.9119Z" fill="#394353" stroke="#394353"/>
<path d="M509.362 26.2097C509.441 27.5367 508.455 28.6545 507.183 28.7278C505.912 28.8007 504.8 27.8038 504.721 26.4769C504.642 25.1502 505.628 24.0333 506.899 23.9599C508.17 23.8867 509.283 24.8828 509.362 26.2097Z" fill="#394353" stroke="#394353"/>
<path d="M509.464 26.974L506.902 23.7823L514.941 19.7227L509.464 26.974Z" fill="#394353" stroke="#394353"/>
<ellipse cx="15.2281" cy="46.874" rx="1.01518" ry="0.997319" fill="#394353"/>
<ellipse cx="15.2281" cy="50.8633" rx="1.01518" ry="0.997319" fill="#394353"/>
<ellipse cx="15.2281" cy="54.8525" rx="1.01518" ry="0.997319" fill="#394353"/>
<ellipse cx="15.2281" cy="58.8418" rx="1.01518" ry="0.997319" fill="#394353"/>
<ellipse cx="15.2281" cy="62.8311" rx="1.01518" ry="0.997319" fill="#394353"/>
<ellipse cx="15.2281" cy="66.8203" rx="1.01518" ry="0.997319" fill="#394353"/>
<ellipse cx="15.2281" cy="70.8098" rx="1.01518" ry="0.997319" fill="#394353"/>
<ellipse cx="15.2281" cy="74.7991" rx="1.01518" ry="0.997319" fill="#394353"/>
<ellipse cx="15.2281" cy="78.7883" rx="1.01518" ry="0.997319" fill="#394353"/>
<ellipse cx="15.2281" cy="82.7774" rx="1.01518" ry="0.997319" fill="#394353"/>
<ellipse cx="15.2281" cy="86.7666" rx="1.01518" ry="0.997319" fill="#394353"/>
<ellipse cx="15.2281" cy="90.7559" rx="1.01518" ry="0.997319" fill="#394353"/>
<ellipse cx="15.2281" cy="94.7454" rx="1.01518" ry="0.997319" fill="#394353"/>
<ellipse cx="15.2281" cy="98.7346" rx="1.01518" ry="0.997319" fill="#394353"/>
<ellipse cx="15.2281" cy="102.724" rx="1.01518" ry="0.997319" fill="#394353"/>
<ellipse cx="15.2281" cy="106.713" rx="1.01518" ry="0.997319" fill="#394353"/>
<ellipse cx="15.2281" cy="110.702" rx="1.01518" ry="0.997319" fill="#394353"/>
<ellipse cx="15.2281" cy="114.692" rx="1.01518" ry="0.997319" fill="#394353"/>
<ellipse cx="15.2281" cy="118.681" rx="1.01518" ry="0.997319" fill="#394353"/>
<ellipse cx="15.2281" cy="122.67" rx="1.01518" ry="0.997319" fill="#394353"/>
<ellipse cx="15.2281" cy="126.66" rx="1.01518" ry="0.997319" fill="#394353"/>
<ellipse cx="15.2281" cy="130.649" rx="1.01518" ry="0.997319" fill="#394353"/>
<ellipse cx="15.2281" cy="134.638" rx="1.01518" ry="0.997319" fill="#394353"/>
<ellipse cx="15.2281" cy="138.627" rx="1.01518" ry="0.997319" fill="#394353"/>
<ellipse cx="15.2281" cy="142.616" rx="1.01518" ry="0.997319" fill="#394353"/>
<ellipse cx="15.2281" cy="146.606" rx="1.01518" ry="0.997319" fill="#394353"/>
<ellipse cx="15.2281" cy="150.595" rx="1.01518" ry="0.997319" fill="#394353"/>
<ellipse cx="15.2281" cy="154.584" rx="1.01518" ry="0.997319" fill="#394353"/>
<ellipse cx="15.2281" cy="158.574" rx="1.01518" ry="0.997319" fill="#394353"/>
<ellipse cx="15.2281" cy="162.563" rx="1.01518" ry="0.997319" fill="#394353"/>
<ellipse cx="15.2281" cy="166.552" rx="1.01518" ry="0.997319" fill="#394353"/>
<ellipse cx="15.2281" cy="170.542" rx="1.01518" ry="0.997319" fill="#394353"/>
<ellipse cx="15.2281" cy="174.531" rx="1.01518" ry="0.997319" fill="#394353"/>
<ellipse cx="15.2281" cy="178.52" rx="1.01518" ry="0.997319" fill="#394353"/>
<ellipse cx="15.2281" cy="182.51" rx="1.01518" ry="0.997319" fill="#394353"/>
<ellipse cx="15.2281" cy="186.499" rx="1.01518" ry="0.997319" fill="#394353"/>
<ellipse cx="15.2281" cy="190.488" rx="1.01518" ry="0.997319" fill="#394353"/>
<ellipse cx="15.2281" cy="194.477" rx="1.01518" ry="0.997319" fill="#394353"/>
<ellipse cx="15.2281" cy="198.466" rx="1.01518" ry="0.997319" fill="#394353"/>
<ellipse cx="15.2281" cy="202.456" rx="1.01518" ry="0.997319" fill="#394353"/>
<ellipse cx="15.2281" cy="206.445" rx="1.01518" ry="0.997319" fill="#394353"/>
<ellipse cx="15.2281" cy="210.434" rx="1.01518" ry="0.997319" fill="#394353"/>
<ellipse cx="15.2281" cy="214.424" rx="1.01518" ry="0.997319" fill="#394353"/>
<ellipse cx="15.2281" cy="218.413" rx="1.01518" ry="0.997319" fill="#394353"/>
<ellipse cx="15.2281" cy="222.402" rx="1.01518" ry="0.997319" fill="#394353"/>
<ellipse cx="15.2281" cy="226.391" rx="1.01518" ry="0.997319" fill="#394353"/>
<ellipse cx="15.2281" cy="230.381" rx="1.01518" ry="0.997319" fill="#394353"/>
<ellipse cx="15.2281" cy="234.37" rx="1.01518" ry="0.997319" fill="#394353"/>
<ellipse cx="15.2281" cy="238.359" rx="1.01518" ry="0.997319" fill="#394353"/>
<ellipse cx="15.2281" cy="242.348" rx="1.01518" ry="0.997319" fill="#394353"/>
<ellipse cx="15.2281" cy="246.338" rx="1.01518" ry="0.997319" fill="#394353"/>
<ellipse cx="15.2281" cy="250.327" rx="1.01518" ry="0.997319" fill="#394353"/>
<ellipse cx="15.2281" cy="254.316" rx="1.01518" ry="0.997319" fill="#394353"/>
<ellipse cx="15.2281" cy="258.306" rx="1.01518" ry="0.997319" fill="#394353"/>
<ellipse cx="15.2281" cy="262.295" rx="1.01518" ry="0.997319" fill="#394353"/>
<ellipse cx="15.2281" cy="266.284" rx="1.01518" ry="0.997319" fill="#394353"/>
<ellipse cx="15.2281" cy="270.273" rx="1.01518" ry="0.997319" fill="#394353"/>
<ellipse cx="15.2281" cy="274.263" rx="1.01518" ry="0.997319" fill="#394353"/>
<ellipse cx="15.2281" cy="278.252" rx="1.01518" ry="0.997319" fill="#394353"/>
<ellipse cx="15.2281" cy="282.241" rx="1.01518" ry="0.997319" fill="#394353"/>
<ellipse cx="15.2281" cy="286.231" rx="1.01518" ry="0.997319" fill="#394353"/>
<ellipse cx="15.2281" cy="290.22" rx="1.01518" ry="0.997319" fill="#394353"/>
<ellipse cx="15.2281" cy="294.209" rx="1.01518" ry="0.997319" fill="#394353"/>
<ellipse cx="15.2281" cy="298.198" rx="1.01518" ry="0.997319" fill="#394353"/>
<ellipse cx="15.2281" cy="302.188" rx="1.01518" ry="0.997319" fill="#394353"/>
<ellipse cx="15.2281" cy="306.177" rx="1.01518" ry="0.997319" fill="#394353"/>
<ellipse cx="15.2281" cy="310.166" rx="1.01518" ry="0.997319" fill="#394353"/>
<ellipse cx="15.2281" cy="314.156" rx="1.01518" ry="0.997319" fill="#394353"/>
<ellipse cx="15.2281" cy="318.145" rx="1.01518" ry="0.997319" fill="#394353"/>
<ellipse cx="15.2281" cy="322.134" rx="1.01518" ry="0.997319" fill="#394353"/>
<ellipse cx="45.6831" cy="14.96" rx="0.997319" ry="1.01518" transform="rotate(-90 45.6831 14.96)" fill="#394353"/>
<ellipse cx="49.7437" cy="14.96" rx="0.997319" ry="1.01518" transform="rotate(-90 49.7437 14.96)" fill="#394353"/>
<ellipse cx="53.8042" cy="14.96" rx="0.997319" ry="1.01518" transform="rotate(-90 53.8042 14.96)" fill="#394353"/>
<ellipse cx="57.8648" cy="14.96" rx="0.997319" ry="1.01518" transform="rotate(-90 57.8648 14.96)" fill="#394353"/>
<ellipse cx="61.9253" cy="14.96" rx="0.997319" ry="1.01518" transform="rotate(-90 61.9253 14.96)" fill="#394353"/>
<ellipse cx="65.9859" cy="14.96" rx="0.997319" ry="1.01518" transform="rotate(-90 65.9859 14.96)" fill="#394353"/>
<ellipse cx="70.0484" cy="14.96" rx="0.997319" ry="1.01518" transform="rotate(-90 70.0484 14.96)" fill="#394353"/>
<ellipse cx="74.1089" cy="14.96" rx="0.997319" ry="1.01518" transform="rotate(-90 74.1089 14.96)" fill="#394353"/>
<ellipse cx="78.1695" cy="14.96" rx="0.997319" ry="1.01518" transform="rotate(-90 78.1695 14.96)" fill="#394353"/>
<ellipse cx="82.23" cy="14.96" rx="0.997319" ry="1.01518" transform="rotate(-90 82.23 14.96)" fill="#394353"/>
<ellipse cx="86.2906" cy="14.96" rx="0.997319" ry="1.01518" transform="rotate(-90 86.2906 14.96)" fill="#394353"/>
<ellipse cx="90.3511" cy="14.96" rx="0.997319" ry="1.01518" transform="rotate(-90 90.3511 14.96)" fill="#394353"/>
<ellipse cx="94.4117" cy="14.96" rx="0.997319" ry="1.01518" transform="rotate(-90 94.4117 14.96)" fill="#394353"/>
<ellipse cx="98.4722" cy="14.96" rx="0.997319" ry="1.01518" transform="rotate(-90 98.4722 14.96)" fill="#394353"/>
<ellipse cx="102.533" cy="14.96" rx="0.997319" ry="1.01518" transform="rotate(-90 102.533 14.96)" fill="#394353"/>
<ellipse cx="106.593" cy="14.96" rx="0.997319" ry="1.01518" transform="rotate(-90 106.593 14.96)" fill="#394353"/>
<ellipse cx="110.654" cy="14.96" rx="0.997319" ry="1.01518" transform="rotate(-90 110.654 14.96)" fill="#394353"/>
<ellipse cx="114.714" cy="14.96" rx="0.997319" ry="1.01518" transform="rotate(-90 114.714 14.96)" fill="#394353"/>
<ellipse cx="118.777" cy="14.96" rx="0.997319" ry="1.01518" transform="rotate(-90 118.777 14.96)" fill="#394353"/>
<ellipse cx="122.837" cy="14.96" rx="0.997319" ry="1.01518" transform="rotate(-90 122.837 14.96)" fill="#394353"/>
<ellipse cx="126.898" cy="14.96" rx="0.997319" ry="1.01518" transform="rotate(-90 126.898 14.96)" fill="#394353"/>
<ellipse cx="130.959" cy="14.96" rx="0.997319" ry="1.01518" transform="rotate(-90 130.959 14.96)" fill="#394353"/>
<ellipse cx="135.019" cy="14.96" rx="0.997319" ry="1.01518" transform="rotate(-90 135.019 14.96)" fill="#394353"/>
<ellipse cx="139.08" cy="14.96" rx="0.997319" ry="1.01518" transform="rotate(-90 139.08 14.96)" fill="#394353"/>
<ellipse cx="143.14" cy="14.96" rx="0.997319" ry="1.01518" transform="rotate(-90 143.14 14.96)" fill="#394353"/>
<ellipse cx="147.201" cy="14.96" rx="0.997319" ry="1.01518" transform="rotate(-90 147.201 14.96)" fill="#394353"/>
<ellipse cx="151.261" cy="14.96" rx="0.997319" ry="1.01518" transform="rotate(-90 151.261 14.96)" fill="#394353"/>
<ellipse cx="155.322" cy="14.96" rx="0.997319" ry="1.01518" transform="rotate(-90 155.322 14.96)" fill="#394353"/>
<ellipse cx="159.382" cy="14.96" rx="0.997319" ry="1.01518" transform="rotate(-90 159.382 14.96)" fill="#394353"/>
<ellipse cx="163.445" cy="14.96" rx="0.997319" ry="1.01518" transform="rotate(-90 163.445 14.96)" fill="#394353"/>
<ellipse cx="167.505" cy="14.96" rx="0.997319" ry="1.01518" transform="rotate(-90 167.505 14.96)" fill="#394353"/>
<ellipse cx="171.566" cy="14.96" rx="0.997319" ry="1.01518" transform="rotate(-90 171.566 14.96)" fill="#394353"/>
<ellipse cx="175.627" cy="14.96" rx="0.997319" ry="1.01518" transform="rotate(-90 175.627 14.96)" fill="#394353"/>
<ellipse cx="179.687" cy="14.96" rx="0.997319" ry="1.01518" transform="rotate(-90 179.687 14.96)" fill="#394353"/>
<ellipse cx="183.748" cy="14.96" rx="0.997319" ry="1.01518" transform="rotate(-90 183.748 14.96)" fill="#394353"/>
<ellipse cx="187.808" cy="14.96" rx="0.997319" ry="1.01518" transform="rotate(-90 187.808 14.96)" fill="#394353"/>
<ellipse cx="191.869" cy="14.96" rx="0.997319" ry="1.01518" transform="rotate(-90 191.869 14.96)" fill="#394353"/>
<ellipse cx="195.929" cy="14.96" rx="0.997319" ry="1.01518" transform="rotate(-90 195.929 14.96)" fill="#394353"/>
<ellipse cx="199.99" cy="14.96" rx="0.997319" ry="1.01518" transform="rotate(-90 199.99 14.96)" fill="#394353"/>
<ellipse cx="204.05" cy="14.96" rx="0.997319" ry="1.01518" transform="rotate(-90 204.05 14.96)" fill="#394353"/>
<ellipse cx="208.113" cy="14.96" rx="0.997319" ry="1.01518" transform="rotate(-90 208.113 14.96)" fill="#394353"/>
<ellipse cx="212.173" cy="14.96" rx="0.997319" ry="1.01518" transform="rotate(-90 212.173 14.96)" fill="#394353"/>
<ellipse cx="216.234" cy="14.96" rx="0.997319" ry="1.01518" transform="rotate(-90 216.234 14.96)" fill="#394353"/>
<ellipse cx="220.294" cy="14.96" rx="0.997319" ry="1.01518" transform="rotate(-90 220.294 14.96)" fill="#394353"/>
<ellipse cx="224.355" cy="14.96" rx="0.997319" ry="1.01518" transform="rotate(-90 224.355 14.96)" fill="#394353"/>
<ellipse cx="228.416" cy="14.96" rx="0.997319" ry="1.01518" transform="rotate(-90 228.416 14.96)" fill="#394353"/>
<ellipse cx="232.476" cy="14.96" rx="0.997319" ry="1.01518" transform="rotate(-90 232.476 14.96)" fill="#394353"/>
<ellipse cx="236.537" cy="14.96" rx="0.997319" ry="1.01518" transform="rotate(-90 236.537 14.96)" fill="#394353"/>
<ellipse cx="240.597" cy="14.96" rx="0.997319" ry="1.01518" transform="rotate(-90 240.597 14.96)" fill="#394353"/>
<ellipse cx="244.658" cy="14.96" rx="0.997319" ry="1.01518" transform="rotate(-90 244.658 14.96)" fill="#394353"/>
<ellipse cx="248.718" cy="14.96" rx="0.997319" ry="1.01518" transform="rotate(-90 248.718 14.96)" fill="#394353"/>
<ellipse cx="252.781" cy="14.96" rx="0.997319" ry="1.01518" transform="rotate(-90 252.781 14.96)" fill="#394353"/>
<ellipse cx="256.841" cy="14.96" rx="0.997319" ry="1.01518" transform="rotate(-90 256.841 14.96)" fill="#394353"/>
<ellipse cx="260.902" cy="14.96" rx="0.997319" ry="1.01518" transform="rotate(-90 260.902 14.96)" fill="#394353"/>
<ellipse cx="264.962" cy="14.96" rx="0.997319" ry="1.01518" transform="rotate(-90 264.962 14.96)" fill="#394353"/>
<ellipse cx="269.023" cy="14.96" rx="0.997319" ry="1.01518" transform="rotate(-90 269.023 14.96)" fill="#394353"/>
<ellipse cx="273.084" cy="14.96" rx="0.997319" ry="1.01518" transform="rotate(-90 273.084 14.96)" fill="#394353"/>
<ellipse cx="277.144" cy="14.96" rx="0.997319" ry="1.01518" transform="rotate(-90 277.144 14.96)" fill="#394353"/>
<ellipse cx="281.205" cy="14.96" rx="0.997319" ry="1.01518" transform="rotate(-90 281.205 14.96)" fill="#394353"/>
<ellipse cx="285.265" cy="14.96" rx="0.997319" ry="1.01518" transform="rotate(-90 285.265 14.96)" fill="#394353"/>
<ellipse cx="289.326" cy="14.96" rx="0.997319" ry="1.01518" transform="rotate(-90 289.326 14.96)" fill="#394353"/>
<ellipse cx="293.386" cy="14.96" rx="0.997319" ry="1.01518" transform="rotate(-90 293.386 14.96)" fill="#394353"/>
<ellipse cx="297.449" cy="14.96" rx="0.997319" ry="1.01518" transform="rotate(-90 297.449 14.96)" fill="#394353"/>
<ellipse cx="301.509" cy="14.96" rx="0.997319" ry="1.01518" transform="rotate(-90 301.509 14.96)" fill="#394353"/>
<ellipse cx="305.57" cy="14.96" rx="0.997319" ry="1.01518" transform="rotate(-90 305.57 14.96)" fill="#394353"/>
<ellipse cx="309.63" cy="14.96" rx="0.997319" ry="1.01518" transform="rotate(-90 309.63 14.96)" fill="#394353"/>
<ellipse cx="313.691" cy="14.96" rx="0.997319" ry="1.01518" transform="rotate(-90 313.691 14.96)" fill="#394353"/>
<ellipse cx="317.751" cy="14.96" rx="0.997319" ry="1.01518" transform="rotate(-90 317.751 14.96)" fill="#394353"/>
<ellipse cx="321.812" cy="14.96" rx="0.997319" ry="1.01518" transform="rotate(-90 321.812 14.96)" fill="#394353"/>
<ellipse cx="325.873" cy="14.96" rx="0.997319" ry="1.01518" transform="rotate(-90 325.873 14.96)" fill="#394353"/>
<ellipse cx="208.113" cy="14.96" rx="0.997319" ry="1.01518" transform="rotate(-90 208.113 14.96)" fill="#394353"/>
<ellipse cx="212.173" cy="14.96" rx="0.997319" ry="1.01518" transform="rotate(-90 212.173 14.96)" fill="#394353"/>
<ellipse cx="216.234" cy="14.96" rx="0.997319" ry="1.01518" transform="rotate(-90 216.234 14.96)" fill="#394353"/>
<ellipse cx="220.294" cy="14.96" rx="0.997319" ry="1.01518" transform="rotate(-90 220.294 14.96)" fill="#394353"/>
<ellipse cx="224.355" cy="14.96" rx="0.997319" ry="1.01518" transform="rotate(-90 224.355 14.96)" fill="#394353"/>
<ellipse cx="228.416" cy="14.96" rx="0.997319" ry="1.01518" transform="rotate(-90 228.416 14.96)" fill="#394353"/>
<ellipse cx="232.476" cy="14.96" rx="0.997319" ry="1.01518" transform="rotate(-90 232.476 14.96)" fill="#394353"/>
<ellipse cx="236.537" cy="14.96" rx="0.997319" ry="1.01518" transform="rotate(-90 236.537 14.96)" fill="#394353"/>
<ellipse cx="240.597" cy="14.96" rx="0.997319" ry="1.01518" transform="rotate(-90 240.597 14.96)" fill="#394353"/>
<ellipse cx="244.658" cy="14.96" rx="0.997319" ry="1.01518" transform="rotate(-90 244.658 14.96)" fill="#394353"/>
<ellipse cx="248.718" cy="14.96" rx="0.997319" ry="1.01518" transform="rotate(-90 248.718 14.96)" fill="#394353"/>
<ellipse cx="252.781" cy="14.96" rx="0.997319" ry="1.01518" transform="rotate(-90 252.781 14.96)" fill="#394353"/>
<ellipse cx="256.841" cy="14.96" rx="0.997319" ry="1.01518" transform="rotate(-90 256.841 14.96)" fill="#394353"/>
<ellipse cx="260.902" cy="14.96" rx="0.997319" ry="1.01518" transform="rotate(-90 260.902 14.96)" fill="#394353"/>
<ellipse cx="264.962" cy="14.96" rx="0.997319" ry="1.01518" transform="rotate(-90 264.962 14.96)" fill="#394353"/>
<ellipse cx="269.023" cy="14.96" rx="0.997319" ry="1.01518" transform="rotate(-90 269.023 14.96)" fill="#394353"/>
<ellipse cx="273.084" cy="14.96" rx="0.997319" ry="1.01518" transform="rotate(-90 273.084 14.96)" fill="#394353"/>
<ellipse cx="277.144" cy="14.96" rx="0.997319" ry="1.01518" transform="rotate(-90 277.144 14.96)" fill="#394353"/>
<ellipse cx="281.205" cy="14.96" rx="0.997319" ry="1.01518" transform="rotate(-90 281.205 14.96)" fill="#394353"/>
<ellipse cx="285.265" cy="14.96" rx="0.997319" ry="1.01518" transform="rotate(-90 285.265 14.96)" fill="#394353"/>
<ellipse cx="289.326" cy="14.96" rx="0.997319" ry="1.01518" transform="rotate(-90 289.326 14.96)" fill="#394353"/>
<ellipse cx="293.386" cy="14.96" rx="0.997319" ry="1.01518" transform="rotate(-90 293.386 14.96)" fill="#394353"/>
<ellipse cx="297.449" cy="14.96" rx="0.997319" ry="1.01518" transform="rotate(-90 297.449 14.96)" fill="#394353"/>
<ellipse cx="301.509" cy="14.96" rx="0.997319" ry="1.01518" transform="rotate(-90 301.509 14.96)" fill="#394353"/>
<ellipse cx="305.57" cy="14.96" rx="0.997319" ry="1.01518" transform="rotate(-90 305.57 14.96)" fill="#394353"/>
<ellipse cx="309.63" cy="14.96" rx="0.997319" ry="1.01518" transform="rotate(-90 309.63 14.96)" fill="#394353"/>
<ellipse cx="313.691" cy="14.96" rx="0.997319" ry="1.01518" transform="rotate(-90 313.691 14.96)" fill="#394353"/>
<ellipse cx="317.751" cy="14.96" rx="0.997319" ry="1.01518" transform="rotate(-90 317.751 14.96)" fill="#394353"/>
<ellipse cx="321.812" cy="14.96" rx="0.997319" ry="1.01518" transform="rotate(-90 321.812 14.96)" fill="#394353"/>
<ellipse cx="325.873" cy="14.96" rx="0.997319" ry="1.01518" transform="rotate(-90 325.873 14.96)" fill="#394353"/>
<ellipse cx="329.933" cy="14.96" rx="0.997319" ry="1.01518" transform="rotate(-90 329.933 14.96)" fill="#394353"/>
<ellipse cx="333.994" cy="14.96" rx="0.997319" ry="1.01518" transform="rotate(-90 333.994 14.96)" fill="#394353"/>
<ellipse cx="338.054" cy="14.96" rx="0.997319" ry="1.01518" transform="rotate(-90 338.054 14.96)" fill="#394353"/>
<ellipse cx="342.115" cy="14.96" rx="0.997319" ry="1.01518" transform="rotate(-90 342.115 14.96)" fill="#394353"/>
<ellipse cx="346.177" cy="14.96" rx="0.997319" ry="1.01518" transform="rotate(-90 346.177 14.96)" fill="#394353"/>
<ellipse cx="350.238" cy="14.96" rx="0.997319" ry="1.01518" transform="rotate(-90 350.238 14.96)" fill="#394353"/>
<ellipse cx="354.298" cy="14.96" rx="0.997319" ry="1.01518" transform="rotate(-90 354.298 14.96)" fill="#394353"/>
<ellipse cx="358.359" cy="14.96" rx="0.997319" ry="1.01518" transform="rotate(-90 358.359 14.96)" fill="#394353"/>
<ellipse cx="362.419" cy="14.96" rx="0.997319" ry="1.01518" transform="rotate(-90 362.419 14.96)" fill="#394353"/>
<ellipse cx="366.48" cy="14.96" rx="0.997319" ry="1.01518" transform="rotate(-90 366.48 14.96)" fill="#394353"/>
<ellipse cx="370.541" cy="14.96" rx="0.997319" ry="1.01518" transform="rotate(-90 370.541 14.96)" fill="#394353"/>
<ellipse cx="374.601" cy="14.96" rx="0.997319" ry="1.01518" transform="rotate(-90 374.601 14.96)" fill="#394353"/>
<ellipse cx="378.662" cy="14.96" rx="0.997319" ry="1.01518" transform="rotate(-90 378.662 14.96)" fill="#394353"/>
<ellipse cx="382.722" cy="14.96" rx="0.997319" ry="1.01518" transform="rotate(-90 382.722 14.96)" fill="#394353"/>
<ellipse cx="386.783" cy="14.96" rx="0.997319" ry="1.01518" transform="rotate(-90 386.783 14.96)" fill="#394353"/>
<ellipse cx="390.845" cy="14.96" rx="0.997319" ry="1.01518" transform="rotate(-90 390.845 14.96)" fill="#394353"/>
<ellipse cx="394.906" cy="14.96" rx="0.997319" ry="1.01518" transform="rotate(-90 394.906 14.96)" fill="#394353"/>
<ellipse cx="398.966" cy="14.96" rx="0.997319" ry="1.01518" transform="rotate(-90 398.966 14.96)" fill="#394353"/>
<ellipse cx="403.027" cy="14.96" rx="0.997319" ry="1.01518" transform="rotate(-90 403.027 14.96)" fill="#394353"/>
<ellipse cx="407.087" cy="14.96" rx="0.997319" ry="1.01518" transform="rotate(-90 407.087 14.96)" fill="#394353"/>
<ellipse cx="411.148" cy="14.96" rx="0.997319" ry="1.01518" transform="rotate(-90 411.148 14.96)" fill="#394353"/>
<ellipse cx="415.209" cy="14.96" rx="0.997319" ry="1.01518" transform="rotate(-90 415.209 14.96)" fill="#394353"/>
<ellipse cx="419.269" cy="14.96" rx="0.997319" ry="1.01518" transform="rotate(-90 419.269 14.96)" fill="#394353"/>
<ellipse cx="423.33" cy="14.96" rx="0.997319" ry="1.01518" transform="rotate(-90 423.33 14.96)" fill="#394353"/>
<ellipse cx="427.39" cy="14.96" rx="0.997319" ry="1.01518" transform="rotate(-90 427.39 14.96)" fill="#394353"/>
<ellipse cx="431.451" cy="14.96" rx="0.997319" ry="1.01518" transform="rotate(-90 431.451 14.96)" fill="#394353"/>
<ellipse cx="435.513" cy="14.96" rx="0.997319" ry="1.01518" transform="rotate(-90 435.513 14.96)" fill="#394353"/>
<ellipse cx="439.574" cy="14.96" rx="0.997319" ry="1.01518" transform="rotate(-90 439.574 14.96)" fill="#394353"/>
<ellipse cx="443.634" cy="14.96" rx="0.997319" ry="1.01518" transform="rotate(-90 443.634 14.96)" fill="#394353"/>
<ellipse cx="447.695" cy="14.96" rx="0.997319" ry="1.01518" transform="rotate(-90 447.695 14.96)" fill="#394353"/>
<ellipse cx="451.755" cy="14.96" rx="0.997319" ry="1.01518" transform="rotate(-90 451.755 14.96)" fill="#394353"/>
<ellipse cx="455.816" cy="14.96" rx="0.997319" ry="1.01518" transform="rotate(-90 455.816 14.96)" fill="#394353"/>
<ellipse cx="459.876" cy="14.96" rx="0.997319" ry="1.01518" transform="rotate(-90 459.876 14.96)" fill="#394353"/>
<ellipse cx="463.937" cy="14.96" rx="0.997319" ry="1.01518" transform="rotate(-90 463.937 14.96)" fill="#394353"/>
<ellipse cx="467.998" cy="14.96" rx="0.997319" ry="1.01518" transform="rotate(-90 467.998 14.96)" fill="#394353"/>
<ellipse cx="472.058" cy="14.96" rx="0.997319" ry="1.01518" transform="rotate(-90 472.058 14.96)" fill="#394353"/>
<ellipse cx="476.119" cy="14.96" rx="0.997319" ry="1.01518" transform="rotate(-90 476.119 14.96)" fill="#394353"/>
<ellipse cx="480.181" cy="14.96" rx="0.997319" ry="1.01518" transform="rotate(-90 480.181 14.96)" fill="#394353"/>
<ellipse cx="484.242" cy="14.96" rx="0.997319" ry="1.01518" transform="rotate(-90 484.242 14.96)" fill="#394353"/>
<ellipse cx="488.302" cy="14.96" rx="0.997319" ry="1.01518" transform="rotate(-90 488.302 14.96)" fill="#394353"/>
<ellipse cx="45.6831" cy="354.048" rx="0.997319" ry="1.01518" transform="rotate(-90 45.6831 354.048)" fill="#394353"/>
<ellipse cx="49.7437" cy="354.048" rx="0.997319" ry="1.01518" transform="rotate(-90 49.7437 354.048)" fill="#394353"/>
<ellipse cx="53.8042" cy="354.048" rx="0.997319" ry="1.01518" transform="rotate(-90 53.8042 354.048)" fill="#394353"/>
<ellipse cx="57.8648" cy="354.048" rx="0.997319" ry="1.01518" transform="rotate(-90 57.8648 354.048)" fill="#394353"/>
<ellipse cx="61.9253" cy="354.048" rx="0.997319" ry="1.01518" transform="rotate(-90 61.9253 354.048)" fill="#394353"/>
<ellipse cx="65.9859" cy="354.048" rx="0.997319" ry="1.01518" transform="rotate(-90 65.9859 354.048)" fill="#394353"/>
<ellipse cx="70.0484" cy="354.048" rx="0.997319" ry="1.01518" transform="rotate(-90 70.0484 354.048)" fill="#394353"/>
<ellipse cx="74.1089" cy="354.048" rx="0.997319" ry="1.01518" transform="rotate(-90 74.1089 354.048)" fill="#394353"/>
<ellipse cx="78.1695" cy="354.048" rx="0.997319" ry="1.01518" transform="rotate(-90 78.1695 354.048)" fill="#394353"/>
<ellipse cx="82.23" cy="354.048" rx="0.997319" ry="1.01518" transform="rotate(-90 82.23 354.048)" fill="#394353"/>
<ellipse cx="86.2906" cy="354.048" rx="0.997319" ry="1.01518" transform="rotate(-90 86.2906 354.048)" fill="#394353"/>
<ellipse cx="90.3511" cy="354.048" rx="0.997319" ry="1.01518" transform="rotate(-90 90.3511 354.048)" fill="#394353"/>
<ellipse cx="94.4117" cy="354.048" rx="0.997319" ry="1.01518" transform="rotate(-90 94.4117 354.048)" fill="#394353"/>
<ellipse cx="98.4722" cy="354.048" rx="0.997319" ry="1.01518" transform="rotate(-90 98.4722 354.048)" fill="#394353"/>
<ellipse cx="102.533" cy="354.048" rx="0.997319" ry="1.01518" transform="rotate(-90 102.533 354.048)" fill="#394353"/>
<ellipse cx="106.593" cy="354.048" rx="0.997319" ry="1.01518" transform="rotate(-90 106.593 354.048)" fill="#394353"/>
<ellipse cx="110.654" cy="354.048" rx="0.997319" ry="1.01518" transform="rotate(-90 110.654 354.048)" fill="#394353"/>
<ellipse cx="114.714" cy="354.048" rx="0.997319" ry="1.01518" transform="rotate(-90 114.714 354.048)" fill="#394353"/>
<ellipse cx="118.777" cy="354.048" rx="0.997319" ry="1.01518" transform="rotate(-90 118.777 354.048)" fill="#394353"/>
<ellipse cx="122.837" cy="354.048" rx="0.997319" ry="1.01518" transform="rotate(-90 122.837 354.048)" fill="#394353"/>
<ellipse cx="126.898" cy="354.048" rx="0.997319" ry="1.01518" transform="rotate(-90 126.898 354.048)" fill="#394353"/>
<ellipse cx="130.959" cy="354.048" rx="0.997319" ry="1.01518" transform="rotate(-90 130.959 354.048)" fill="#394353"/>
<ellipse cx="135.019" cy="354.048" rx="0.997319" ry="1.01518" transform="rotate(-90 135.019 354.048)" fill="#394353"/>
<ellipse cx="139.08" cy="354.048" rx="0.997319" ry="1.01518" transform="rotate(-90 139.08 354.048)" fill="#394353"/>
<ellipse cx="143.14" cy="354.048" rx="0.997319" ry="1.01518" transform="rotate(-90 143.14 354.048)" fill="#394353"/>
<ellipse cx="147.201" cy="354.048" rx="0.997319" ry="1.01518" transform="rotate(-90 147.201 354.048)" fill="#394353"/>
<ellipse cx="151.261" cy="354.048" rx="0.997319" ry="1.01518" transform="rotate(-90 151.261 354.048)" fill="#394353"/>
<ellipse cx="155.322" cy="354.048" rx="0.997319" ry="1.01518" transform="rotate(-90 155.322 354.048)" fill="#394353"/>
<ellipse cx="159.382" cy="354.048" rx="0.997319" ry="1.01518" transform="rotate(-90 159.382 354.048)" fill="#394353"/>
<ellipse cx="163.445" cy="354.048" rx="0.997319" ry="1.01518" transform="rotate(-90 163.445 354.048)" fill="#394353"/>
<ellipse cx="167.505" cy="354.048" rx="0.997319" ry="1.01518" transform="rotate(-90 167.505 354.048)" fill="#394353"/>
<ellipse cx="171.566" cy="354.048" rx="0.997319" ry="1.01518" transform="rotate(-90 171.566 354.048)" fill="#394353"/>
<ellipse cx="175.627" cy="354.048" rx="0.997319" ry="1.01518" transform="rotate(-90 175.627 354.048)" fill="#394353"/>
<ellipse cx="179.687" cy="354.048" rx="0.997319" ry="1.01518" transform="rotate(-90 179.687 354.048)" fill="#394353"/>
<ellipse cx="183.748" cy="354.048" rx="0.997319" ry="1.01518" transform="rotate(-90 183.748 354.048)" fill="#394353"/>
<ellipse cx="187.808" cy="354.048" rx="0.997319" ry="1.01518" transform="rotate(-90 187.808 354.048)" fill="#394353"/>
<ellipse cx="191.869" cy="354.048" rx="0.997319" ry="1.01518" transform="rotate(-90 191.869 354.048)" fill="#394353"/>
<ellipse cx="195.929" cy="354.048" rx="0.997319" ry="1.01518" transform="rotate(-90 195.929 354.048)" fill="#394353"/>
<ellipse cx="199.99" cy="354.048" rx="0.997319" ry="1.01518" transform="rotate(-90 199.99 354.048)" fill="#394353"/>
<ellipse cx="204.05" cy="354.048" rx="0.997319" ry="1.01518" transform="rotate(-90 204.05 354.048)" fill="#394353"/>
<ellipse cx="208.113" cy="354.048" rx="0.997319" ry="1.01518" transform="rotate(-90 208.113 354.048)" fill="#394353"/>
<ellipse cx="212.173" cy="354.048" rx="0.997319" ry="1.01518" transform="rotate(-90 212.173 354.048)" fill="#394353"/>
<ellipse cx="216.234" cy="354.048" rx="0.997319" ry="1.01518" transform="rotate(-90 216.234 354.048)" fill="#394353"/>
<ellipse cx="220.294" cy="354.048" rx="0.997319" ry="1.01518" transform="rotate(-90 220.294 354.048)" fill="#394353"/>
<ellipse cx="224.355" cy="354.048" rx="0.997319" ry="1.01518" transform="rotate(-90 224.355 354.048)" fill="#394353"/>
<ellipse cx="228.416" cy="354.048" rx="0.997319" ry="1.01518" transform="rotate(-90 228.416 354.048)" fill="#394353"/>
<ellipse cx="232.476" cy="354.048" rx="0.997319" ry="1.01518" transform="rotate(-90 232.476 354.048)" fill="#394353"/>
<ellipse cx="236.537" cy="354.048" rx="0.997319" ry="1.01518" transform="rotate(-90 236.537 354.048)" fill="#394353"/>
<ellipse cx="240.597" cy="354.048" rx="0.997319" ry="1.01518" transform="rotate(-90 240.597 354.048)" fill="#394353"/>
<ellipse cx="244.658" cy="354.048" rx="0.997319" ry="1.01518" transform="rotate(-90 244.658 354.048)" fill="#394353"/>
<ellipse cx="248.718" cy="354.048" rx="0.997319" ry="1.01518" transform="rotate(-90 248.718 354.048)" fill="#394353"/>
<ellipse cx="252.781" cy="354.048" rx="0.997319" ry="1.01518" transform="rotate(-90 252.781 354.048)" fill="#394353"/>
<ellipse cx="256.841" cy="354.048" rx="0.997319" ry="1.01518" transform="rotate(-90 256.841 354.048)" fill="#394353"/>
<ellipse cx="260.902" cy="354.048" rx="0.997319" ry="1.01518" transform="rotate(-90 260.902 354.048)" fill="#394353"/>
<ellipse cx="264.962" cy="354.048" rx="0.997319" ry="1.01518" transform="rotate(-90 264.962 354.048)" fill="#394353"/>
<ellipse cx="269.023" cy="354.048" rx="0.997319" ry="1.01518" transform="rotate(-90 269.023 354.048)" fill="#394353"/>
<ellipse cx="273.084" cy="354.048" rx="0.997319" ry="1.01518" transform="rotate(-90 273.084 354.048)" fill="#394353"/>
<ellipse cx="277.144" cy="354.048" rx="0.997319" ry="1.01518" transform="rotate(-90 277.144 354.048)" fill="#394353"/>
<ellipse cx="281.205" cy="354.048" rx="0.997319" ry="1.01518" transform="rotate(-90 281.205 354.048)" fill="#394353"/>
<ellipse cx="285.265" cy="354.048" rx="0.997319" ry="1.01518" transform="rotate(-90 285.265 354.048)" fill="#394353"/>
<ellipse cx="289.326" cy="354.048" rx="0.997319" ry="1.01518" transform="rotate(-90 289.326 354.048)" fill="#394353"/>
<ellipse cx="293.386" cy="354.048" rx="0.997319" ry="1.01518" transform="rotate(-90 293.386 354.048)" fill="#394353"/>
<ellipse cx="297.449" cy="354.048" rx="0.997319" ry="1.01518" transform="rotate(-90 297.449 354.048)" fill="#394353"/>
<ellipse cx="301.509" cy="354.048" rx="0.997319" ry="1.01518" transform="rotate(-90 301.509 354.048)" fill="#394353"/>
<ellipse cx="305.57" cy="354.048" rx="0.997319" ry="1.01518" transform="rotate(-90 305.57 354.048)" fill="#394353"/>
<ellipse cx="309.63" cy="354.048" rx="0.997319" ry="1.01518" transform="rotate(-90 309.63 354.048)" fill="#394353"/>
<ellipse cx="313.691" cy="354.048" rx="0.997319" ry="1.01518" transform="rotate(-90 313.691 354.048)" fill="#394353"/>
<ellipse cx="317.751" cy="354.048" rx="0.997319" ry="1.01518" transform="rotate(-90 317.751 354.048)" fill="#394353"/>
<ellipse cx="321.812" cy="354.048" rx="0.997319" ry="1.01518" transform="rotate(-90 321.812 354.048)" fill="#394353"/>
<ellipse cx="325.873" cy="354.048" rx="0.997319" ry="1.01518" transform="rotate(-90 325.873 354.048)" fill="#394353"/>
<ellipse cx="208.113" cy="354.048" rx="0.997319" ry="1.01518" transform="rotate(-90 208.113 354.048)" fill="#394353"/>
<ellipse cx="212.173" cy="354.048" rx="0.997319" ry="1.01518" transform="rotate(-90 212.173 354.048)" fill="#394353"/>
<ellipse cx="216.234" cy="354.048" rx="0.997319" ry="1.01518" transform="rotate(-90 216.234 354.048)" fill="#394353"/>
<ellipse cx="220.294" cy="354.048" rx="0.997319" ry="1.01518" transform="rotate(-90 220.294 354.048)" fill="#394353"/>
<ellipse cx="224.355" cy="354.048" rx="0.997319" ry="1.01518" transform="rotate(-90 224.355 354.048)" fill="#394353"/>
<ellipse cx="228.416" cy="354.048" rx="0.997319" ry="1.01518" transform="rotate(-90 228.416 354.048)" fill="#394353"/>
<ellipse cx="232.476" cy="354.048" rx="0.997319" ry="1.01518" transform="rotate(-90 232.476 354.048)" fill="#394353"/>
<ellipse cx="236.537" cy="354.048" rx="0.997319" ry="1.01518" transform="rotate(-90 236.537 354.048)" fill="#394353"/>
<ellipse cx="240.597" cy="354.048" rx="0.997319" ry="1.01518" transform="rotate(-90 240.597 354.048)" fill="#394353"/>
<ellipse cx="244.658" cy="354.048" rx="0.997319" ry="1.01518" transform="rotate(-90 244.658 354.048)" fill="#394353"/>
<ellipse cx="248.718" cy="354.048" rx="0.997319" ry="1.01518" transform="rotate(-90 248.718 354.048)" fill="#394353"/>
<ellipse cx="252.781" cy="354.048" rx="0.997319" ry="1.01518" transform="rotate(-90 252.781 354.048)" fill="#394353"/>
<ellipse cx="256.841" cy="354.048" rx="0.997319" ry="1.01518" transform="rotate(-90 256.841 354.048)" fill="#394353"/>
<ellipse cx="260.902" cy="354.048" rx="0.997319" ry="1.01518" transform="rotate(-90 260.902 354.048)" fill="#394353"/>
<ellipse cx="264.962" cy="354.048" rx="0.997319" ry="1.01518" transform="rotate(-90 264.962 354.048)" fill="#394353"/>
<ellipse cx="269.023" cy="354.048" rx="0.997319" ry="1.01518" transform="rotate(-90 269.023 354.048)" fill="#394353"/>
<ellipse cx="273.084" cy="354.048" rx="0.997319" ry="1.01518" transform="rotate(-90 273.084 354.048)" fill="#394353"/>
<ellipse cx="277.144" cy="354.048" rx="0.997319" ry="1.01518" transform="rotate(-90 277.144 354.048)" fill="#394353"/>
<ellipse cx="281.205" cy="354.048" rx="0.997319" ry="1.01518" transform="rotate(-90 281.205 354.048)" fill="#394353"/>
<ellipse cx="285.265" cy="354.048" rx="0.997319" ry="1.01518" transform="rotate(-90 285.265 354.048)" fill="#394353"/>
<ellipse cx="289.326" cy="354.048" rx="0.997319" ry="1.01518" transform="rotate(-90 289.326 354.048)" fill="#394353"/>
<ellipse cx="293.386" cy="354.048" rx="0.997319" ry="1.01518" transform="rotate(-90 293.386 354.048)" fill="#394353"/>
<ellipse cx="297.449" cy="354.048" rx="0.997319" ry="1.01518" transform="rotate(-90 297.449 354.048)" fill="#394353"/>
<ellipse cx="301.509" cy="354.048" rx="0.997319" ry="1.01518" transform="rotate(-90 301.509 354.048)" fill="#394353"/>
<ellipse cx="305.57" cy="354.048" rx="0.997319" ry="1.01518" transform="rotate(-90 305.57 354.048)" fill="#394353"/>
<ellipse cx="309.63" cy="354.048" rx="0.997319" ry="1.01518" transform="rotate(-90 309.63 354.048)" fill="#394353"/>
<ellipse cx="313.691" cy="354.048" rx="0.997319" ry="1.01518" transform="rotate(-90 313.691 354.048)" fill="#394353"/>
<ellipse cx="317.751" cy="354.048" rx="0.997319" ry="1.01518" transform="rotate(-90 317.751 354.048)" fill="#394353"/>
<ellipse cx="321.812" cy="354.048" rx="0.997319" ry="1.01518" transform="rotate(-90 321.812 354.048)" fill="#394353"/>
<ellipse cx="325.873" cy="354.048" rx="0.997319" ry="1.01518" transform="rotate(-90 325.873 354.048)" fill="#394353"/>
<ellipse cx="329.933" cy="354.048" rx="0.997319" ry="1.01518" transform="rotate(-90 329.933 354.048)" fill="#394353"/>
<ellipse cx="333.994" cy="354.048" rx="0.997319" ry="1.01518" transform="rotate(-90 333.994 354.048)" fill="#394353"/>
<ellipse cx="338.054" cy="354.048" rx="0.997319" ry="1.01518" transform="rotate(-90 338.054 354.048)" fill="#394353"/>
<ellipse cx="342.115" cy="354.048" rx="0.997319" ry="1.01518" transform="rotate(-90 342.115 354.048)" fill="#394353"/>
<ellipse cx="346.177" cy="354.048" rx="0.997319" ry="1.01518" transform="rotate(-90 346.177 354.048)" fill="#394353"/>
<ellipse cx="350.238" cy="354.048" rx="0.997319" ry="1.01518" transform="rotate(-90 350.238 354.048)" fill="#394353"/>
<ellipse cx="354.298" cy="354.048" rx="0.997319" ry="1.01518" transform="rotate(-90 354.298 354.048)" fill="#394353"/>
<ellipse cx="358.359" cy="354.048" rx="0.997319" ry="1.01518" transform="rotate(-90 358.359 354.048)" fill="#394353"/>
<ellipse cx="362.419" cy="354.048" rx="0.997319" ry="1.01518" transform="rotate(-90 362.419 354.048)" fill="#394353"/>
<ellipse cx="366.48" cy="354.048" rx="0.997319" ry="1.01518" transform="rotate(-90 366.48 354.048)" fill="#394353"/>
<ellipse cx="370.541" cy="354.048" rx="0.997319" ry="1.01518" transform="rotate(-90 370.541 354.048)" fill="#394353"/>
<ellipse cx="374.601" cy="354.048" rx="0.997319" ry="1.01518" transform="rotate(-90 374.601 354.048)" fill="#394353"/>
<ellipse cx="378.662" cy="354.048" rx="0.997319" ry="1.01518" transform="rotate(-90 378.662 354.048)" fill="#394353"/>
<ellipse cx="382.722" cy="354.048" rx="0.997319" ry="1.01518" transform="rotate(-90 382.722 354.048)" fill="#394353"/>
<ellipse cx="386.783" cy="354.048" rx="0.997319" ry="1.01518" transform="rotate(-90 386.783 354.048)" fill="#394353"/>
<ellipse cx="390.845" cy="354.048" rx="0.997319" ry="1.01518" transform="rotate(-90 390.845 354.048)" fill="#394353"/>
<ellipse cx="394.906" cy="354.048" rx="0.997319" ry="1.01518" transform="rotate(-90 394.906 354.048)" fill="#394353"/>
<ellipse cx="398.966" cy="354.048" rx="0.997319" ry="1.01518" transform="rotate(-90 398.966 354.048)" fill="#394353"/>
<ellipse cx="403.027" cy="354.048" rx="0.997319" ry="1.01518" transform="rotate(-90 403.027 354.048)" fill="#394353"/>
<ellipse cx="407.087" cy="354.048" rx="0.997319" ry="1.01518" transform="rotate(-90 407.087 354.048)" fill="#394353"/>
<ellipse cx="411.148" cy="354.048" rx="0.997319" ry="1.01518" transform="rotate(-90 411.148 354.048)" fill="#394353"/>
<ellipse cx="415.209" cy="354.048" rx="0.997319" ry="1.01518" transform="rotate(-90 415.209 354.048)" fill="#394353"/>
<ellipse cx="419.269" cy="354.048" rx="0.997319" ry="1.01518" transform="rotate(-90 419.269 354.048)" fill="#394353"/>
<ellipse cx="423.33" cy="354.048" rx="0.997319" ry="1.01518" transform="rotate(-90 423.33 354.048)" fill="#394353"/>
<ellipse cx="427.39" cy="354.048" rx="0.997319" ry="1.01518" transform="rotate(-90 427.39 354.048)" fill="#394353"/>
<ellipse cx="431.451" cy="354.048" rx="0.997319" ry="1.01518" transform="rotate(-90 431.451 354.048)" fill="#394353"/>
<ellipse cx="435.513" cy="354.048" rx="0.997319" ry="1.01518" transform="rotate(-90 435.513 354.048)" fill="#394353"/>
<ellipse cx="439.574" cy="354.048" rx="0.997319" ry="1.01518" transform="rotate(-90 439.574 354.048)" fill="#394353"/>
<ellipse cx="443.634" cy="354.048" rx="0.997319" ry="1.01518" transform="rotate(-90 443.634 354.048)" fill="#394353"/>
<ellipse cx="447.695" cy="354.048" rx="0.997319" ry="1.01518" transform="rotate(-90 447.695 354.048)" fill="#394353"/>
<ellipse cx="451.755" cy="354.048" rx="0.997319" ry="1.01518" transform="rotate(-90 451.755 354.048)" fill="#394353"/>
<ellipse cx="455.816" cy="354.048" rx="0.997319" ry="1.01518" transform="rotate(-90 455.816 354.048)" fill="#394353"/>
<ellipse cx="459.876" cy="354.048" rx="0.997319" ry="1.01518" transform="rotate(-90 459.876 354.048)" fill="#394353"/>
<ellipse cx="463.937" cy="354.048" rx="0.997319" ry="1.01518" transform="rotate(-90 463.937 354.048)" fill="#394353"/>
<ellipse cx="467.998" cy="354.048" rx="0.997319" ry="1.01518" transform="rotate(-90 467.998 354.048)" fill="#394353"/>
<ellipse cx="472.058" cy="354.048" rx="0.997319" ry="1.01518" transform="rotate(-90 472.058 354.048)" fill="#394353"/>
<ellipse cx="476.119" cy="354.048" rx="0.997319" ry="1.01518" transform="rotate(-90 476.119 354.048)" fill="#394353"/>
<ellipse cx="480.181" cy="354.048" rx="0.997319" ry="1.01518" transform="rotate(-90 480.181 354.048)" fill="#394353"/>
<ellipse cx="484.242" cy="354.048" rx="0.997319" ry="1.01518" transform="rotate(-90 484.242 354.048)" fill="#394353"/>
<ellipse cx="488.302" cy="354.048" rx="0.997319" ry="1.01518" transform="rotate(-90 488.302 354.048)" fill="#394353"/>
<ellipse cx="519.773" cy="46.874" rx="1.01518" ry="0.997319" fill="#394353"/>
<ellipse cx="519.773" cy="50.8633" rx="1.01518" ry="0.997319" fill="#394353"/>
<ellipse cx="519.773" cy="54.8525" rx="1.01518" ry="0.997319" fill="#394353"/>
<ellipse cx="519.773" cy="58.8418" rx="1.01518" ry="0.997319" fill="#394353"/>
<ellipse cx="519.773" cy="62.8311" rx="1.01518" ry="0.997319" fill="#394353"/>
<ellipse cx="519.773" cy="66.8203" rx="1.01518" ry="0.997319" fill="#394353"/>
<ellipse cx="519.773" cy="70.8098" rx="1.01518" ry="0.997319" fill="#394353"/>
<ellipse cx="519.773" cy="74.7991" rx="1.01518" ry="0.997319" fill="#394353"/>
<ellipse cx="519.773" cy="78.7883" rx="1.01518" ry="0.997319" fill="#394353"/>
<ellipse cx="519.773" cy="82.7774" rx="1.01518" ry="0.997319" fill="#394353"/>
<ellipse cx="519.773" cy="86.7666" rx="1.01518" ry="0.997319" fill="#394353"/>
<ellipse cx="519.773" cy="90.7559" rx="1.01518" ry="0.997319" fill="#394353"/>
<ellipse cx="519.773" cy="94.7454" rx="1.01518" ry="0.997319" fill="#394353"/>
<ellipse cx="519.773" cy="98.7346" rx="1.01518" ry="0.997319" fill="#394353"/>
<ellipse cx="519.773" cy="102.724" rx="1.01518" ry="0.997319" fill="#394353"/>
<ellipse cx="519.773" cy="106.713" rx="1.01518" ry="0.997319" fill="#394353"/>
<ellipse cx="519.773" cy="110.702" rx="1.01518" ry="0.997319" fill="#394353"/>
<ellipse cx="519.773" cy="114.692" rx="1.01518" ry="0.997319" fill="#394353"/>
<ellipse cx="519.773" cy="118.681" rx="1.01518" ry="0.997319" fill="#394353"/>
<ellipse cx="519.773" cy="122.67" rx="1.01518" ry="0.997319" fill="#394353"/>
<ellipse cx="519.773" cy="126.66" rx="1.01518" ry="0.997319" fill="#394353"/>
<ellipse cx="519.773" cy="130.649" rx="1.01518" ry="0.997319" fill="#394353"/>
<ellipse cx="519.773" cy="134.638" rx="1.01518" ry="0.997319" fill="#394353"/>
<ellipse cx="519.773" cy="138.627" rx="1.01518" ry="0.997319" fill="#394353"/>
<ellipse cx="519.773" cy="142.616" rx="1.01518" ry="0.997319" fill="#394353"/>
<ellipse cx="519.773" cy="146.606" rx="1.01518" ry="0.997319" fill="#394353"/>
<ellipse cx="519.773" cy="150.595" rx="1.01518" ry="0.997319" fill="#394353"/>
<ellipse cx="519.773" cy="154.584" rx="1.01518" ry="0.997319" fill="#394353"/>
<ellipse cx="519.773" cy="158.574" rx="1.01518" ry="0.997319" fill="#394353"/>
<ellipse cx="519.773" cy="162.563" rx="1.01518" ry="0.997319" fill="#394353"/>
<ellipse cx="519.773" cy="166.552" rx="1.01518" ry="0.997319" fill="#394353"/>
<ellipse cx="519.773" cy="170.542" rx="1.01518" ry="0.997319" fill="#394353"/>
<ellipse cx="519.773" cy="174.531" rx="1.01518" ry="0.997319" fill="#394353"/>
<ellipse cx="519.773" cy="178.52" rx="1.01518" ry="0.997319" fill="#394353"/>
<ellipse cx="519.773" cy="182.51" rx="1.01518" ry="0.997319" fill="#394353"/>
<ellipse cx="519.773" cy="186.499" rx="1.01518" ry="0.997319" fill="#394353"/>
<ellipse cx="519.773" cy="190.488" rx="1.01518" ry="0.997319" fill="#394353"/>
<ellipse cx="519.773" cy="194.477" rx="1.01518" ry="0.997319" fill="#394353"/>
<ellipse cx="519.773" cy="198.466" rx="1.01518" ry="0.997319" fill="#394353"/>
<ellipse cx="519.773" cy="202.456" rx="1.01518" ry="0.997319" fill="#394353"/>
<ellipse cx="519.773" cy="206.445" rx="1.01518" ry="0.997319" fill="#394353"/>
<ellipse cx="519.773" cy="210.434" rx="1.01518" ry="0.997319" fill="#394353"/>
<ellipse cx="519.773" cy="214.424" rx="1.01518" ry="0.997319" fill="#394353"/>
<ellipse cx="519.773" cy="218.413" rx="1.01518" ry="0.997319" fill="#394353"/>
<ellipse cx="519.773" cy="222.402" rx="1.01518" ry="0.997319" fill="#394353"/>
<ellipse cx="519.773" cy="226.391" rx="1.01518" ry="0.997319" fill="#394353"/>
<ellipse cx="519.773" cy="230.381" rx="1.01518" ry="0.997319" fill="#394353"/>
<ellipse cx="519.773" cy="234.37" rx="1.01518" ry="0.997319" fill="#394353"/>
<ellipse cx="519.773" cy="238.359" rx="1.01518" ry="0.997319" fill="#394353"/>
<ellipse cx="519.773" cy="242.348" rx="1.01518" ry="0.997319" fill="#394353"/>
<ellipse cx="519.773" cy="246.338" rx="1.01518" ry="0.997319" fill="#394353"/>
<ellipse cx="519.773" cy="250.327" rx="1.01518" ry="0.997319" fill="#394353"/>
<ellipse cx="519.773" cy="254.316" rx="1.01518" ry="0.997319" fill="#394353"/>
<ellipse cx="519.773" cy="258.306" rx="1.01518" ry="0.997319" fill="#394353"/>
<ellipse cx="519.773" cy="262.295" rx="1.01518" ry="0.997319" fill="#394353"/>
<ellipse cx="519.773" cy="266.284" rx="1.01518" ry="0.997319" fill="#394353"/>
<ellipse cx="519.773" cy="270.273" rx="1.01518" ry="0.997319" fill="#394353"/>
<ellipse cx="519.773" cy="274.263" rx="1.01518" ry="0.997319" fill="#394353"/>
<ellipse cx="519.773" cy="278.252" rx="1.01518" ry="0.997319" fill="#394353"/>
<ellipse cx="519.773" cy="282.241" rx="1.01518" ry="0.997319" fill="#394353"/>
<ellipse cx="519.773" cy="286.231" rx="1.01518" ry="0.997319" fill="#394353"/>
<ellipse cx="519.773" cy="290.22" rx="1.01518" ry="0.997319" fill="#394353"/>
<ellipse cx="519.773" cy="294.209" rx="1.01518" ry="0.997319" fill="#394353"/>
<ellipse cx="519.773" cy="298.198" rx="1.01518" ry="0.997319" fill="#394353"/>
<ellipse cx="519.773" cy="302.188" rx="1.01518" ry="0.997319" fill="#394353"/>
<ellipse cx="519.773" cy="306.177" rx="1.01518" ry="0.997319" fill="#394353"/>
<ellipse cx="519.773" cy="310.166" rx="1.01518" ry="0.997319" fill="#394353"/>
<ellipse cx="519.773" cy="314.156" rx="1.01518" ry="0.997319" fill="#394353"/>
<ellipse cx="519.773" cy="318.145" rx="1.01518" ry="0.997319" fill="#394353"/>
<ellipse cx="519.773" cy="322.134" rx="1.01518" ry="0.997319" fill="#394353"/>
<rect x="11.166" y="11.9678" width="4.06072" height="2.99196" fill="#394353"/>
<rect x="519.771" y="11.9678" width="4.06072" height="2.99196" fill="#394353"/>
<rect x="11.166" y="353.051" width="5.0759" height="5.98391" rx="2.53795" fill="#394353"/>
<rect x="518.758" y="353.051" width="5.0759" height="5.98391" rx="2.53795" fill="#394353"/>
<path opacity="0.35" d="M0 142L535 242.553V372H0V142Z" fill="#363A3F"/>
<path opacity="0.35" d="M0 270.621L535 204V372H0V270.621Z" fill="#363A3F"/>
</svg>
