<svg width="139" height="199.23" viewBox="0 0 139 199.23" role="img" style="" xmlns="http://www.w3.org/2000/svg">
  <title style="fill:rgb(0, 0, 0);stroke:none;color:rgb(255, 255, 255);stroke-width:1px;stroke-linecap:butt;stroke-linejoin:miter;opacity:1;font-family:&quot;Anthropic Sans&quot;, -apple-system, BlinkMacSystemFont, &quot;Segoe UI&quot;, sans-serif;font-size:16px;font-weight:400;text-anchor:start;dominant-baseline:auto">Círculo ornamental roxo completo</title>
  <defs>
    <linearGradient id="g0" x1="65.99" y1="49.50" x2="108.49" y2="107.50" gradientUnits="userSpaceOnUse">
      <stop stop-color="#9D8AED"/>
      <stop offset="0.25" stop-color="#B7AAF2"/>
      <stop offset="1" stop-color="#9D8AED"/>
    </linearGradient>
    <linearGradient id="g1" x1="66.35" y1="52.61" x2="102.86" y2="102.29" gradientUnits="userSpaceOnUse">
      <stop stop-color="#9D8AED"/>
      <stop offset="0.25" stop-color="#B7AAF2"/>
      <stop offset="1" stop-color="#9D8AED"/>
    </linearGradient>
  </defs>

  <!-- Asas inferiores -->
  <rect x="16.572" y="152.72" width="49.289" height="36.508" transform="rotate(-67 16.572 152.72)" fill="#6B6B6B" style="fill:rgb(107, 107, 107);stroke:none;color:rgb(255, 255, 255);stroke-width:1px;stroke-linecap:butt;stroke-linejoin:miter;opacity:1;font-family:&quot;Anthropic Sans&quot;, -apple-system, BlinkMacSystemFont, &quot;Segoe UI&quot;, sans-serif;font-size:16px;font-weight:400;text-anchor:start;dominant-baseline:auto"/>
  <rect width="49.236" height="36.291" transform="matrix(-0.3884 -0.9215 -0.9195 0.3931 120.482 153.366)" fill="#272727" style="fill:rgb(39, 39, 39);stroke:none;color:rgb(255, 255, 255);stroke-width:1px;stroke-linecap:butt;stroke-linejoin:miter;opacity:1;font-family:&quot;Anthropic Sans&quot;, -apple-system, BlinkMacSystemFont, &quot;Segoe UI&quot;, sans-serif;font-size:16px;font-weight:400;text-anchor:start;dominant-baseline:auto"/>
  <polygon points="33.022,159.646 53.249,159.957 46.262,174.94" fill="#6B6B6B" style="fill:rgb(107, 107, 107);stroke:none;color:rgb(255, 255, 255);stroke-width:1px;stroke-linecap:butt;stroke-linejoin:miter;opacity:1;font-family:&quot;Anthropic Sans&quot;, -apple-system, BlinkMacSystemFont, &quot;Segoe UI&quot;, sans-serif;font-size:16px;font-weight:400;text-anchor:start;dominant-baseline:auto"/>
  <polygon points="33.332,159.91 12.241,161.452 20.956,142.762" fill="#6B6B6B" style="fill:rgb(107, 107, 107);stroke:none;color:rgb(255, 255, 255);stroke-width:1px;stroke-linecap:butt;stroke-linejoin:miter;opacity:1;font-family:&quot;Anthropic Sans&quot;, -apple-system, BlinkMacSystemFont, &quot;Segoe UI&quot;, sans-serif;font-size:16px;font-weight:400;text-anchor:start;dominant-baseline:auto"/>
  <polygon points="104.147,160.291 84.062,160.603 90.999,175.586" fill="#272727" style="fill:rgb(39, 39, 39);stroke:none;color:rgb(255, 255, 255);stroke-width:1px;stroke-linecap:butt;stroke-linejoin:miter;opacity:1;font-family:&quot;Anthropic Sans&quot;, -apple-system, BlinkMacSystemFont, &quot;Segoe UI&quot;, sans-serif;font-size:16px;font-weight:400;text-anchor:start;dominant-baseline:auto"/>
  <polygon points="103.838,160.556 124.781,162.097 116.127,143.408" fill="#272727" style="fill:rgb(39, 39, 39);stroke:none;color:rgb(255, 255, 255);stroke-width:1px;stroke-linecap:butt;stroke-linejoin:miter;opacity:1;font-family:&quot;Anthropic Sans&quot;, -apple-system, BlinkMacSystemFont, &quot;Segoe UI&quot;, sans-serif;font-size:16px;font-weight:400;text-anchor:start;dominant-baseline:auto"/>

  <!-- Elipse de fundo -->
  <ellipse cx="68.488" cy="71.495" rx="56.5" ry="57.5" fill="#7665C0" style="fill:rgb(118, 101, 192);stroke:none;color:rgb(255, 255, 255);stroke-width:1px;stroke-linecap:butt;stroke-linejoin:miter;opacity:1;font-family:&quot;Anthropic Sans&quot;, -apple-system, BlinkMacSystemFont, &quot;Segoe UI&quot;, sans-serif;font-size:16px;font-weight:400;text-anchor:start;dominant-baseline:auto"/>

  <!-- Pétalas decorativas - arco superior esquerdo (descendo da esquerda) -->
  <g fill="#7665C0" style="fill:rgb(118, 101, 192);stroke:none;color:rgb(255, 255, 255);stroke-width:1px;stroke-linecap:butt;stroke-linejoin:miter;opacity:1;font-family:&quot;Anthropic Sans&quot;, -apple-system, BlinkMacSystemFont, &quot;Segoe UI&quot;, sans-serif;font-size:16px;font-weight:400;text-anchor:start;dominant-baseline:auto">
    <path d="M50.171 12.474C50.234 11.804 51.040 11.500 51.521 11.965L57.878 18.118C58.301 18.526 58.151 19.240 57.600 19.448L50.410 22.155C49.859 22.363 49.284 21.922 49.340 21.334L50.171 12.474Z" style="fill:rgb(118, 101, 192);stroke:none;color:rgb(255, 255, 255);stroke-width:1px;stroke-linecap:butt;stroke-linejoin:miter;opacity:1;font-family:&quot;Anthropic Sans&quot;, -apple-system, BlinkMacSystemFont, &quot;Segoe UI&quot;, sans-serif;font-size:16px;font-weight:400;text-anchor:start;dominant-baseline:auto"/>
    <path d="M43.172 14.835C43.200 14.149 44.016 13.809 44.514 14.274L51.263 20.584C51.688 20.981 51.558 21.689 51.020 21.914L43.884 24.893C43.345 25.117 42.760 24.707 42.784 24.123L43.172 14.835Z" style="fill:rgb(118, 101, 192);stroke:none;color:rgb(255, 255, 255);stroke-width:1px;stroke-linecap:butt;stroke-linejoin:miter;opacity:1;font-family:&quot;Anthropic Sans&quot;, -apple-system, BlinkMacSystemFont, &quot;Segoe UI&quot;, sans-serif;font-size:16px;font-weight:400;text-anchor:start;dominant-baseline:auto"/>
    <path d="M36.914 18.688C36.792 18.027 37.483 17.511 38.071 17.824L45.858 21.965C46.376 22.241 46.427 22.969 45.954 23.322L39.781 27.930C39.308 28.284 38.635 28.019 38.528 27.438L36.914 18.688Z" style="fill:rgb(118, 101, 192);stroke:none;color:rgb(255, 255, 255);stroke-width:1px;stroke-linecap:butt;stroke-linejoin:miter;opacity:1;font-family:&quot;Anthropic Sans&quot;, -apple-system, BlinkMacSystemFont, &quot;Segoe UI&quot;, sans-serif;font-size:16px;font-weight:400;text-anchor:start;dominant-baseline:auto"/>
    <path d="M30.827 22.910C30.668 22.243 31.357 21.690 31.963 21.998L40.170 26.181C40.686 26.445 40.756 27.162 40.300 27.528L34.251 32.382C33.795 32.748 33.121 32.516 32.985 31.947L30.827 22.910Z" style="fill:rgb(118, 101, 192);stroke:none;color:rgb(255, 255, 255);stroke-width:1px;stroke-linecap:butt;stroke-linejoin:miter;opacity:1;font-family:&quot;Anthropic Sans&quot;, -apple-system, BlinkMacSystemFont, &quot;Segoe UI&quot;, sans-serif;font-size:16px;font-weight:400;text-anchor:start;dominant-baseline:auto"/>
    <path d="M26.011 27.416C25.752 26.797 26.316 26.145 26.957 26.323L35.441 28.678C36.005 28.835 36.211 29.536 35.824 29.983L30.772 35.824C30.385 36.272 29.671 36.158 29.442 35.613L26.011 27.416Z" style="fill:rgb(118, 101, 192);stroke:none;color:rgb(255, 255, 255);stroke-width:1px;stroke-linecap:butt;stroke-linejoin:miter;opacity:1;font-family:&quot;Anthropic Sans&quot;, -apple-system, BlinkMacSystemFont, &quot;Segoe UI&quot;, sans-serif;font-size:16px;font-weight:400;text-anchor:start;dominant-baseline:auto"/>
    <path d="M20.960 32.861C20.664 32.244 21.219 31.556 21.875 31.726L30.778 34.031C31.339 34.177 31.560 34.863 31.193 35.319L26.314 41.373C25.946 41.829 25.238 41.748 24.984 41.221L20.960 32.861Z" style="fill:rgb(118, 101, 192);stroke:none;color:rgb(255, 255, 255);stroke-width:1px;stroke-linecap:butt;stroke-linejoin:miter;opacity:1;font-family:&quot;Anthropic Sans&quot;, -apple-system, BlinkMacSystemFont, &quot;Segoe UI&quot;, sans-serif;font-size:16px;font-weight:400;text-anchor:start;dominant-baseline:auto"/>
    <path d="M16.057 38.399C15.709 37.826 16.169 37.099 16.829 37.177L25.566 38.211C26.149 38.280 26.458 38.942 26.141 39.443L22.005 45.988C21.688 46.489 20.964 46.484 20.657 45.978L16.057 38.399Z" style="fill:rgb(118, 101, 192);stroke:none;color:rgb(255, 255, 255);stroke-width:1px;stroke-linecap:butt;stroke-linejoin:miter;opacity:1;font-family:&quot;Anthropic Sans&quot;, -apple-system, BlinkMacSystemFont, &quot;Segoe UI&quot;, sans-serif;font-size:16px;font-weight:400;text-anchor:start;dominant-baseline:auto"/>
    <path d="M12.297 45.636C11.859 45.136 12.178 44.345 12.837 44.300L21.481 43.705C22.069 43.664 22.495 44.262 22.272 44.813L19.376 51.978C19.153 52.529 18.436 52.652 18.045 52.206L12.297 45.636Z" style="fill:rgb(118, 101, 192);stroke:none;color:rgb(255, 255, 255);stroke-width:1px;stroke-linecap:butt;stroke-linejoin:miter;opacity:1;font-family:&quot;Anthropic Sans&quot;, -apple-system, BlinkMacSystemFont, &quot;Segoe UI&quot;, sans-serif;font-size:16px;font-weight:400;text-anchor:start;dominant-baseline:auto"/>
    <path d="M9.544 52.688C9.023 52.195 9.375 51.313 10.096 51.304L20.678 51.182C21.244 51.175 21.632 51.743 21.422 52.271L18.488 59.630C18.278 60.159 17.602 60.312 17.193 59.925L9.544 52.688Z" style="fill:rgb(118, 101, 192);stroke:none;color:rgb(255, 255, 255);stroke-width:1px;stroke-linecap:butt;stroke-linejoin:miter;opacity:1;font-family:&quot;Anthropic Sans&quot;, -apple-system, BlinkMacSystemFont, &quot;Segoe UI&quot;, sans-serif;font-size:16px;font-weight:400;text-anchor:start;dominant-baseline:auto"/>
    <path d="M8.764 59.184C8.201 58.769 8.415 57.874 9.108 57.748L18.906 55.965C19.471 55.862 19.951 56.370 19.817 56.931L17.988 64.577C17.854 65.137 17.194 65.384 16.734 65.046L8.764 59.184Z" style="fill:rgb(118, 101, 192);stroke:none;color:rgb(255, 255, 255);stroke-width:1px;stroke-linecap:butt;stroke-linejoin:miter;opacity:1;font-family:&quot;Anthropic Sans&quot;, -apple-system, BlinkMacSystemFont, &quot;Segoe UI&quot;, sans-serif;font-size:16px;font-weight:400;text-anchor:start;dominant-baseline:auto"/>
    <path d="M9.479 66.558C8.899 66.246 8.935 65.397 9.539 65.121L17.470 61.502C18.011 61.255 18.616 61.662 18.591 62.256L18.271 69.978C18.247 70.572 17.610 70.940 17.091 70.660L9.479 66.558Z" style="fill:rgb(118, 101, 192);stroke:none;color:rgb(255, 255, 255);stroke-width:1px;stroke-linecap:butt;stroke-linejoin:miter;opacity:1;font-family:&quot;Anthropic Sans&quot;, -apple-system, BlinkMacSystemFont, &quot;Segoe UI&quot;, sans-serif;font-size:16px;font-weight:400;text-anchor:start;dominant-baseline:auto"/>
    <path d="M8.921 73.993C8.314 73.706 8.320 72.834 8.932 72.542L17.155 68.615C17.686 68.362 18.292 68.747 18.288 69.335L18.230 77.111C18.226 77.699 17.614 78.090 17.087 77.842L8.921 73.993Z" style="fill:rgb(118, 101, 192);stroke:none;color:rgb(255, 255, 255);stroke-width:1px;stroke-linecap:butt;stroke-linejoin:miter;opacity:1;font-family:&quot;Anthropic Sans&quot;, -apple-system, BlinkMacSystemFont, &quot;Segoe UI&quot;, sans-serif;font-size:16px;font-weight:400;text-anchor:start;dominant-baseline:auto"/>
    <path d="M9.734 81.225C9.110 80.998 9.020 80.148 9.583 79.793L17.046 75.077C17.546 74.762 18.202 75.080 18.264 75.670L19.084 83.390C19.147 83.979 18.573 84.431 18.018 84.230L9.734 81.225Z" style="fill:rgb(118, 101, 192);stroke:none;color:rgb(255, 255, 255);stroke-width:1px;stroke-linecap:butt;stroke-linejoin:miter;opacity:1;font-family:&quot;Anthropic Sans&quot;, -apple-system, BlinkMacSystemFont, &quot;Segoe UI&quot;, sans-serif;font-size:16px;font-weight:400;text-anchor:start;dominant-baseline:auto"/>
    <path d="M10.914 88.211C10.255 88.071 10.062 87.220 10.595 86.797L17.456 81.348C17.917 80.983 18.595 81.219 18.725 81.791L20.363 89.036C20.493 89.608 19.985 90.127 19.414 90.006L10.914 88.211Z" style="fill:rgb(118, 101, 192);stroke:none;color:rgb(255, 255, 255);stroke-width:1px;stroke-linecap:butt;stroke-linejoin:miter;opacity:1;font-family:&quot;Anthropic Sans&quot;, -apple-system, BlinkMacSystemFont, &quot;Segoe UI&quot;, sans-serif;font-size:16px;font-weight:400;text-anchor:start;dominant-baseline:auto"/>
    <path d="M12.943 94.586C12.273 94.507 12.005 93.676 12.498 93.206L18.847 87.157C19.273 86.751 19.969 86.926 20.149 87.484L22.428 94.551C22.608 95.109 22.150 95.671 21.571 95.603L12.943 94.586Z" style="fill:rgb(118, 101, 192);stroke:none;color:rgb(255, 255, 255);stroke-width:1px;stroke-linecap:butt;stroke-linejoin:miter;opacity:1;font-family:&quot;Anthropic Sans&quot;, -apple-system, BlinkMacSystemFont, &quot;Segoe UI&quot;, sans-serif;font-size:16px;font-weight:400;text-anchor:start;dominant-baseline:auto"/>
    <path d="M16.133 100.942C15.476 101.017 15.030 100.295 15.380 99.723L19.778 92.530C20.090 92.020 20.816 92.012 21.127 92.515L24.989 98.765C25.300 99.267 24.979 99.932 24.394 99.999L16.133 100.942Z" style="fill:rgb(118, 101, 192);stroke:none;color:rgb(255, 255, 255);stroke-width:1px;stroke-linecap:butt;stroke-linejoin:miter;opacity:1;font-family:&quot;Anthropic Sans&quot;, -apple-system, BlinkMacSystemFont, &quot;Segoe UI&quot;, sans-serif;font-size:16px;font-weight:400;text-anchor:start;dominant-baseline:auto"/>
    <path d="M19.694 107.159C19.029 107.271 18.546 106.547 18.893 105.957L23.361 98.360C23.661 97.851 24.376 97.824 24.701 98.310L28.803 104.460C29.127 104.946 28.839 105.615 28.265 105.712L19.694 107.159Z" style="fill:rgb(118, 101, 192);stroke:none;color:rgb(255, 255, 255);stroke-width:1px;stroke-linecap:butt;stroke-linejoin:miter;opacity:1;font-family:&quot;Anthropic Sans&quot;, -apple-system, BlinkMacSystemFont, &quot;Segoe UI&quot;, sans-serif;font-size:16px;font-weight:400;text-anchor:start;dominant-baseline:auto"/>
    <path d="M23.613 112.153C22.987 112.370 22.397 111.760 22.618 111.124L25.401 103.139C25.598 102.574 26.305 102.410 26.714 102.833L31.802 108.092C32.212 108.515 32.041 109.234 31.484 109.426L23.613 112.153Z" style="fill:rgb(118, 101, 192);stroke:none;color:rgb(255, 255, 255);stroke-width:1px;stroke-linecap:butt;stroke-linejoin:miter;opacity:1;font-family:&quot;Anthropic Sans&quot;, -apple-system, BlinkMacSystemFont, &quot;Segoe UI&quot;, sans-serif;font-size:16px;font-weight:400;text-anchor:start;dominant-baseline:auto"/>
    <path d="M28.398 117.446C27.771 117.702 27.144 117.097 27.359 116.445L30.126 108.050C30.311 107.489 31.003 107.308 31.423 107.712L36.723 112.821C37.143 113.225 37.005 113.941 36.465 114.160L28.398 117.446Z" style="fill:rgb(118, 101, 192);stroke:none;color:rgb(255, 255, 255);stroke-width:1px;stroke-linecap:butt;stroke-linejoin:miter;opacity:1;font-family:&quot;Anthropic Sans&quot;, -apple-system, BlinkMacSystemFont, &quot;Segoe UI&quot;, sans-serif;font-size:16px;font-weight:400;text-anchor:start;dominant-baseline:auto"/>
    <path d="M34.088 121.207C33.527 121.565 32.810 121.106 32.883 120.435L33.797 112.014C33.862 111.421 34.512 111.100 35.007 111.417L41.141 115.346C41.636 115.662 41.634 116.399 41.138 116.715L34.088 121.207Z" style="fill:rgb(118, 101, 192);stroke:none;color:rgb(255, 255, 255);stroke-width:1px;stroke-linecap:butt;stroke-linejoin:miter;opacity:1;font-family:&quot;Anthropic Sans&quot;, -apple-system, BlinkMacSystemFont, &quot;Segoe UI&quot;, sans-serif;font-size:16px;font-weight:400;text-anchor:start;dominant-baseline:auto"/>
    <path d="M39.935 125.242C39.382 125.637 38.631 125.192 38.693 124.507L39.500 115.692C39.554 115.105 40.187 114.771 40.687 115.067L46.995 118.800C47.495 119.096 47.524 119.822 47.050 120.160L39.935 125.242Z" style="fill:rgb(118, 101, 192);stroke:none;color:rgb(255, 255, 255);stroke-width:1px;stroke-linecap:butt;stroke-linejoin:miter;opacity:1;font-family:&quot;Anthropic Sans&quot;, -apple-system, BlinkMacSystemFont, &quot;Segoe UI&quot;, sans-serif;font-size:16px;font-weight:400;text-anchor:start;dominant-baseline:auto"/>
    <path d="M46.168 127.289C45.702 127.758 44.907 127.467 44.826 126.798L43.822 118.503C43.750 117.908 44.312 117.449 44.865 117.652L51.644 120.134C52.197 120.336 52.358 121.060 51.944 121.477L46.168 127.289Z" style="fill:rgb(118, 101, 192);stroke:none;color:rgb(255, 255, 255);stroke-width:1px;stroke-linecap:butt;stroke-linejoin:miter;opacity:1;font-family:&quot;Anthropic Sans&quot;, -apple-system, BlinkMacSystemFont, &quot;Segoe UI&quot;, sans-serif;font-size:16px;font-weight:400;text-anchor:start;dominant-baseline:auto"/>
    <path d="M52.718 129.943C52.269 130.447 51.443 130.177 51.349 129.496L50.153 120.843C50.072 120.256 50.613 119.789 51.167 119.970L58.070 122.228C58.623 122.408 58.813 123.115 58.426 123.549L52.718 129.943Z" style="fill:rgb(118, 101, 192);stroke:none;color:rgb(255, 255, 255);stroke-width:1px;stroke-linecap:butt;stroke-linejoin:miter;opacity:1;font-family:&quot;Anthropic Sans&quot;, -apple-system, BlinkMacSystemFont, &quot;Segoe UI&quot;, sans-serif;font-size:16px;font-weight:400;text-anchor:start;dominant-baseline:auto"/>
    <path d="M59.378 130.946C59.028 131.512 58.182 131.413 57.955 130.779L55.138 122.915C54.937 122.355 55.383 121.782 55.968 121.850L63.130 122.693C63.714 122.762 64.033 123.425 63.723 123.926L59.378 130.946Z" style="fill:rgb(118, 101, 192);stroke:none;color:rgb(255, 255, 255);stroke-width:1px;stroke-linecap:butt;stroke-linejoin:miter;opacity:1;font-family:&quot;Anthropic Sans&quot;, -apple-system, BlinkMacSystemFont, &quot;Segoe UI&quot;, sans-serif;font-size:16px;font-weight:400;text-anchor:start;dominant-baseline:auto"/>
    <path d="M66.349 132.006C66.023 132.602 65.152 132.530 64.909 131.888L61.826 123.721C61.618 123.169 62.043 122.593 62.623 122.640L69.856 123.235C70.436 123.283 70.779 123.922 70.499 124.434L66.349 132.006Z" style="fill:rgb(118, 101, 192);stroke:none;color:rgb(255, 255, 255);stroke-width:1px;stroke-linecap:butt;stroke-linejoin:miter;opacity:1;font-family:&quot;Anthropic Sans&quot;, -apple-system, BlinkMacSystemFont, &quot;Segoe UI&quot;, sans-serif;font-size:16px;font-weight:400;text-anchor:start;dominant-baseline:auto"/>
    <path d="M73.228 131.717C72.959 132.335 72.099 132.365 71.790 131.767L67.921 124.277C67.650 123.753 68.016 123.124 68.602 123.104L75.843 122.852C76.430 122.832 76.836 123.434 76.600 123.975L73.228 131.717Z" style="fill:rgb(118, 101, 192);stroke:none;color:rgb(255, 255, 255);stroke-width:1px;stroke-linecap:butt;stroke-linejoin:miter;opacity:1;font-family:&quot;Anthropic Sans&quot;, -apple-system, BlinkMacSystemFont, &quot;Segoe UI&quot;, sans-serif;font-size:16px;font-weight:400;text-anchor:start;dominant-baseline:auto"/>
    <path d="M80.290 131.715C80.049 132.359 79.169 132.421 78.844 131.817L74.669 124.062C74.393 123.549 74.737 122.918 75.316 122.877L82.593 122.365C83.172 122.324 83.598 122.901 83.392 123.448L80.290 131.715Z" style="fill:rgb(118, 101, 192);stroke:none;color:rgb(255, 255, 255);stroke-width:1px;stroke-linecap:butt;stroke-linejoin:miter;opacity:1;font-family:&quot;Anthropic Sans&quot;, -apple-system, BlinkMacSystemFont, &quot;Segoe UI&quot;, sans-serif;font-size:16px;font-weight:400;text-anchor:start;dominant-baseline:auto"/>
    <path d="M80.327 130.847C80.168 131.497 79.330 131.676 78.919 131.146L73.774 124.503C73.412 124.036 73.662 123.352 74.238 123.229L81.377 121.711C81.953 121.588 82.460 122.112 82.320 122.685L80.327 130.847Z" style="fill:rgb(118, 101, 192);stroke:none;color:rgb(255, 255, 255);stroke-width:1px;stroke-linecap:butt;stroke-linejoin:miter;opacity:1;font-family:&quot;Anthropic Sans&quot;, -apple-system, BlinkMacSystemFont, &quot;Segoe UI&quot;, sans-serif;font-size:16px;font-weight:400;text-anchor:start;dominant-baseline:auto"/>
    <path d="M87.331 129.604C87.204 130.275 86.351 130.488 85.923 129.955L80.428 123.108C80.062 122.652 80.291 121.970 80.857 121.829L87.985 120.049C88.551 119.908 89.073 120.402 88.964 120.977L87.331 129.604Z" style="fill:rgb(118, 101, 192);stroke:none;color:rgb(255, 255, 255);stroke-width:1px;stroke-linecap:butt;stroke-linejoin:miter;opacity:1;font-family:&quot;Anthropic Sans&quot;, -apple-system, BlinkMacSystemFont, &quot;Segoe UI&quot;, sans-serif;font-size:16px;font-weight:400;text-anchor:start;dominant-baseline:auto"/>
    <path d="M93.820 126.853C93.845 127.523 93.089 127.926 92.550 127.531L85.784 122.565C85.308 122.216 85.360 121.488 85.880 121.211L92.321 117.774C92.841 117.497 93.472 117.860 93.495 118.451L93.820 126.853Z" style="fill:rgb(118, 101, 192);stroke:none;color:rgb(255, 255, 255);stroke-width:1px;stroke-linecap:butt;stroke-linejoin:miter;opacity:1;font-family:&quot;Anthropic Sans&quot;, -apple-system, BlinkMacSystemFont, &quot;Segoe UI&quot;, sans-serif;font-size:16px;font-weight:400;text-anchor:start;dominant-baseline:auto"/>
    <path d="M100.209 123.716C100.271 124.397 99.510 124.837 98.954 124.444L91.796 119.378C91.319 119.041 91.351 118.322 91.856 118.029L98.216 114.344C98.721 114.051 99.358 114.382 99.411 114.965L100.209 123.716Z" style="fill:rgb(118, 101, 192);stroke:none;color:rgb(255, 255, 255);stroke-width:1px;stroke-linecap:butt;stroke-linejoin:miter;opacity:1;font-family:&quot;Anthropic Sans&quot;, -apple-system, BlinkMacSystemFont, &quot;Segoe UI&quot;, sans-serif;font-size:16px;font-weight:400;text-anchor:start;dominant-baseline:auto"/>
    <path d="M105.422 120.135C105.590 120.784 104.939 121.341 104.328 121.070L96.662 117.675C96.123 117.436 96.018 116.714 96.466 116.331L102.021 111.585C102.469 111.202 103.162 111.421 103.311 111.994L105.422 120.135Z" style="fill:rgb(118, 101, 192);stroke:none;color:rgb(255, 255, 255);stroke-width:1px;stroke-linecap:butt;stroke-linejoin:miter;opacity:1;font-family:&quot;Anthropic Sans&quot;, -apple-system, BlinkMacSystemFont, &quot;Segoe UI&quot;, sans-serif;font-size:16px;font-weight:400;text-anchor:start;dominant-baseline:auto"/>
    <path d="M110.988 115.697C111.194 116.348 110.546 116.943 109.918 116.678L101.848 113.269C101.311 113.043 101.188 112.333 101.619 111.938L107.041 106.967C107.471 106.572 108.164 106.759 108.340 107.317L110.988 115.697Z" style="fill:rgb(118, 101, 192);stroke:none;color:rgb(255, 255, 255);stroke-width:1px;stroke-linecap:butt;stroke-linejoin:miter;opacity:1;font-family:&quot;Anthropic Sans&quot;, -apple-system, BlinkMacSystemFont, &quot;Segoe UI&quot;, sans-serif;font-size:16px;font-weight:400;text-anchor:start;dominant-baseline:auto"/>
    <path d="M115.115 110.240C115.426 110.833 114.920 111.524 114.264 111.402L106.031 109.860C105.452 109.751 105.184 109.072 105.533 108.595L109.854 102.694C110.203 102.218 110.928 102.274 111.203 102.797L115.115 110.240Z" style="fill:rgb(118, 101, 192);stroke:none;color:rgb(255, 255, 255);stroke-width:1px;stroke-linecap:butt;stroke-linejoin:miter;opacity:1;font-family:&quot;Anthropic Sans&quot;, -apple-system, BlinkMacSystemFont, &quot;Segoe UI&quot;, sans-serif;font-size:16px;font-weight:400;text-anchor:start;dominant-baseline:auto"/>
    <path d="M119.521 104.634C119.870 105.221 119.376 105.948 118.705 105.834L110.076 104.372C109.501 104.275 109.219 103.612 109.548 103.128L113.689 97.038C114.017 96.555 114.734 96.578 115.033 97.082L119.521 104.634Z" style="fill:rgb(118, 101, 192);stroke:none;color:rgb(255, 255, 255);stroke-width:1px;stroke-linecap:butt;stroke-linejoin:miter;opacity:1;font-family:&quot;Anthropic Sans&quot;, -apple-system, BlinkMacSystemFont, &quot;Segoe UI&quot;, sans-serif;font-size:16px;font-weight:400;text-anchor:start;dominant-baseline:auto"/>
    <path d="M121.998 98.505C122.425 99.009 122.082 99.785 121.417 99.818L113.167 100.220C112.573 100.249 112.159 99.649 112.398 99.106L115.341 92.447C115.581 91.905 116.308 91.798 116.690 92.248L121.998 98.505Z" style="fill:rgb(118, 101, 192);stroke:none;color:rgb(255, 255, 255);stroke-width:1px;stroke-linecap:butt;stroke-linejoin:miter;opacity:1;font-family:&quot;Anthropic Sans&quot;, -apple-system, BlinkMacSystemFont, &quot;Segoe UI&quot;, sans-serif;font-size:16px;font-weight:400;text-anchor:start;dominant-baseline:auto"/>
    <path d="M125.094 92.088C125.557 92.578 125.233 93.387 124.555 93.432L115.938 94.002C115.351 94.041 114.927 93.460 115.146 92.916L117.877 86.115C118.095 85.571 118.808 85.433 119.209 85.858L125.094 92.088Z" style="fill:rgb(118, 101, 192);stroke:none;color:rgb(255, 255, 255);stroke-width:1px;stroke-linecap:butt;stroke-linejoin:miter;opacity:1;font-family:&quot;Anthropic Sans&quot;, -apple-system, BlinkMacSystemFont, &quot;Segoe UI&quot;, sans-serif;font-size:16px;font-weight:400;text-anchor:start;dominant-baseline:auto"/>
    <path d="M126.577 85.447C127.108 85.842 126.950 86.677 126.310 86.859L118.350 89.123C117.779 89.286 117.240 88.795 117.350 88.212L118.705 81.045C118.815 80.463 119.498 80.193 119.973 80.545L126.577 85.447Z" style="fill:rgb(118, 101, 192);stroke:none;color:rgb(255, 255, 255);stroke-width:1px;stroke-linecap:butt;stroke-linejoin:miter;opacity:1;font-family:&quot;Anthropic Sans&quot;, -apple-system, BlinkMacSystemFont, &quot;Segoe UI&quot;, sans-serif;font-size:16px;font-weight:400;text-anchor:start;dominant-baseline:auto"/>
    <path d="M128.131 78.489C128.693 78.862 128.561 79.725 127.911 79.922L119.632 82.433C119.070 82.604 118.526 82.134 118.615 81.554L119.731 74.297C119.820 73.717 120.481 73.421 120.968 73.744L128.131 78.489Z" style="fill:rgb(118, 101, 192);stroke:none;color:rgb(255, 255, 255);stroke-width:1px;stroke-linecap:butt;stroke-linejoin:miter;opacity:1;font-family:&quot;Anthropic Sans&quot;, -apple-system, BlinkMacSystemFont, &quot;Segoe UI&quot;, sans-serif;font-size:16px;font-weight:400;text-anchor:start;dominant-baseline:auto"/>
    <path d="M128.355 71.530C128.943 71.847 128.910 72.703 128.299 72.970L120.630 76.324C120.090 76.561 119.487 76.148 119.510 75.557L119.792 68.230C119.815 67.639 120.447 67.277 120.967 67.557L128.355 71.530Z" style="fill:rgb(118, 101, 192);stroke:none;color:rgb(255, 255, 255);stroke-width:1px;stroke-linecap:butt;stroke-linejoin:miter;opacity:1;font-family:&quot;Anthropic Sans&quot;, -apple-system, BlinkMacSystemFont, &quot;Segoe UI&quot;, sans-serif;font-size:16px;font-weight:400;text-anchor:start;dominant-baseline:auto"/>
    <path d="M128.869 64.402C129.484 64.693 129.481 65.572 128.863 65.855L120.911 69.499C120.380 69.742 119.776 69.351 119.778 68.766L119.806 61.382C119.808 60.797 120.415 60.413 120.944 60.663L128.869 64.402Z" style="fill:rgb(118, 101, 192);stroke:none;color:rgb(255, 255, 255);stroke-width:1px;stroke-linecap:butt;stroke-linejoin:miter;opacity:1;font-family:&quot;Anthropic Sans&quot;, -apple-system, BlinkMacSystemFont, &quot;Segoe UI&quot;, sans-serif;font-size:16px;font-weight:400;text-anchor:start;dominant-baseline:auto"/>
    <path d="M127.256 56.417C127.903 56.540 128.120 57.360 127.623 57.804L121.201 63.554C120.756 63.952 120.058 63.746 119.906 63.172L117.961 55.824C117.809 55.250 118.309 54.708 118.887 54.819L127.256 56.417Z" style="fill:rgb(118, 101, 192);stroke:none;color:rgb(255, 255, 255);stroke-width:1px;stroke-linecap:butt;stroke-linejoin:miter;opacity:1;font-family:&quot;Anthropic Sans&quot;, -apple-system, BlinkMacSystemFont, &quot;Segoe UI&quot;, sans-serif;font-size:16px;font-weight:400;text-anchor:start;dominant-baseline:auto"/>
    <path d="M125.613 49.243C126.279 49.333 126.530 50.167 126.031 50.629L119.422 56.755C118.990 57.156 118.297 56.971 118.127 56.408L115.918 49.087C115.748 48.525 116.217 47.968 116.795 48.046L125.613 49.243Z" style="fill:rgb(118, 101, 192);stroke:none;color:rgb(255, 255, 255);stroke-width:1px;stroke-linecap:butt;stroke-linejoin:miter;opacity:1;font-family:&quot;Anthropic Sans&quot;, -apple-system, BlinkMacSystemFont, &quot;Segoe UI&quot;, sans-serif;font-size:16px;font-weight:400;text-anchor:start;dominant-baseline:auto"/>
    <path d="M122.474 42.673C123.130 42.609 123.560 43.337 123.202 43.905L118.570 51.245C118.250 51.752 117.524 51.750 117.223 51.241L113.378 44.732C113.077 44.224 113.411 43.562 113.996 43.504L122.474 42.673Z" style="fill:rgb(118, 101, 192);stroke:none;color:rgb(255, 255, 255);stroke-width:1px;stroke-linecap:butt;stroke-linejoin:miter;opacity:1;font-family:&quot;Anthropic Sans&quot;, -apple-system, BlinkMacSystemFont, &quot;Segoe UI&quot;, sans-serif;font-size:16px;font-weight:400;text-anchor:start;dominant-baseline:auto"/>
    <path d="M118.963 36.247C119.628 36.146 120.095 36.878 119.739 37.463L115.029 45.216C114.721 45.723 114.006 45.740 113.691 45.247L109.599 38.838C109.285 38.346 109.585 37.679 110.160 37.591L118.963 36.247Z" style="fill:rgb(118, 101, 192);stroke:none;color:rgb(255, 255, 255);stroke-width:1px;stroke-linecap:butt;stroke-linejoin:miter;opacity:1;font-family:&quot;Anthropic Sans&quot;, -apple-system, BlinkMacSystemFont, &quot;Segoe UI&quot;, sans-serif;font-size:16px;font-weight:400;text-anchor:start;dominant-baseline:auto"/>
    <path d="M115.061 31.061C115.689 30.854 116.265 31.475 116.033 32.108L113.041 40.292C112.835 40.855 112.127 41.010 111.727 40.579L106.608 35.071C106.208 34.640 106.392 33.922 106.951 33.737L115.061 31.061Z" style="fill:rgb(118, 101, 192);stroke:none;color:rgb(255, 255, 255);stroke-width:1px;stroke-linecap:butt;stroke-linejoin:miter;opacity:1;font-family:&quot;Anthropic Sans&quot;, -apple-system, BlinkMacSystemFont, &quot;Segoe UI&quot;, sans-serif;font-size:16px;font-weight:400;text-anchor:start;dominant-baseline:auto"/>
    <path d="M110.287 25.559C110.916 25.314 111.529 25.929 111.304 26.579L108.322 35.183C108.128 35.744 107.433 35.915 107.023 35.503L101.685 30.147C101.274 29.735 101.425 29.019 101.967 28.808L110.287 25.559Z" style="fill:rgb(118, 101, 192);stroke:none;color:rgb(255, 255, 255);stroke-width:1px;stroke-linecap:butt;stroke-linejoin:miter;opacity:1;font-family:&quot;Anthropic Sans&quot;, -apple-system, BlinkMacSystemFont, &quot;Segoe UI&quot;, sans-serif;font-size:16px;font-weight:400;text-anchor:start;dominant-baseline:auto"/>
    <path d="M104.564 21.612C105.130 21.262 105.836 21.734 105.752 22.406L104.666 31.070C104.592 31.664 103.938 31.975 103.451 31.649L97.237 27.495C96.749 27.169 96.764 26.430 97.265 26.121L104.564 21.612Z" style="fill:rgb(118, 101, 192);stroke:none;color:rgb(255, 255, 255);stroke-width:1px;stroke-linecap:butt;stroke-linejoin:miter;opacity:1;font-family:&quot;Anthropic Sans&quot;, -apple-system, BlinkMacSystemFont, &quot;Segoe UI&quot;, sans-serif;font-size:16px;font-weight:400;text-anchor:start;dominant-baseline:auto"/>
    <path d="M98.685 17.380C99.243 16.993 99.984 17.452 99.910 18.138L98.928 27.208C98.864 27.797 98.227 28.121 97.734 27.816L91.340 23.861C90.847 23.556 90.831 22.827 91.310 22.495L98.685 17.380Z" style="fill:rgb(118, 101, 192);stroke:none;color:rgb(255, 255, 255);stroke-width:1px;stroke-linecap:butt;stroke-linejoin:miter;opacity:1;font-family:&quot;Anthropic Sans&quot;, -apple-system, BlinkMacSystemFont, &quot;Segoe UI&quot;, sans-serif;font-size:16px;font-weight:400;text-anchor:start;dominant-baseline:auto"/>
    <path d="M92.375 15.175C92.848 14.712 93.637 15.018 93.706 15.691L94.587 24.258C94.648 24.856 94.081 25.305 93.533 25.093L86.633 22.418C86.085 22.206 85.936 21.479 86.356 21.067L92.375 15.175Z" style="fill:rgb(118, 101, 192);stroke:none;color:rgb(255, 255, 255);stroke-width:1px;stroke-linecap:butt;stroke-linejoin:miter;opacity:1;font-family:&quot;Anthropic Sans&quot;, -apple-system, BlinkMacSystemFont, &quot;Segoe UI&quot;, sans-serif;font-size:16px;font-weight:400;text-anchor:start;dominant-baseline:auto"/>
    <path d="M85.759 12.345C86.216 11.848 87.036 12.133 87.118 12.818L88.189 21.755C88.260 22.346 87.712 22.804 87.163 22.613L80.134 20.168C79.585 19.977 79.407 19.267 79.801 18.838L85.759 12.345Z" style="fill:rgb(118, 101, 192);stroke:none;color:rgb(255, 255, 255);stroke-width:1px;stroke-linecap:butt;stroke-linejoin:miter;opacity:1;font-family:&quot;Anthropic Sans&quot;, -apple-system, BlinkMacSystemFont, &quot;Segoe UI&quot;, sans-serif;font-size:16px;font-weight:400;text-anchor:start;dominant-baseline:auto"/>
    <path d="M78.997 11.204C79.356 10.643 80.201 10.757 80.416 11.397L83.162 19.550C83.352 20.115 82.897 20.680 82.316 20.601L74.995 19.610C74.413 19.531 74.106 18.863 74.422 18.366L78.997 11.204Z" style="fill:rgb(118, 101, 192);stroke:none;color:rgb(255, 255, 255);stroke-width:1px;stroke-linecap:butt;stroke-linejoin:miter;opacity:1;font-family:&quot;Anthropic Sans&quot;, -apple-system, BlinkMacSystemFont, &quot;Segoe UI&quot;, sans-serif;font-size:16px;font-weight:400;text-anchor:start;dominant-baseline:auto"/>
    <path d="M71.923 9.998C72.258 9.406 73.128 9.492 73.359 10.141L76.371 18.610C76.569 19.166 76.135 19.735 75.557 19.677L68.161 18.941C67.583 18.883 67.252 18.238 67.540 17.730L71.923 9.998Z" style="fill:rgb(118, 101, 192);stroke:none;color:rgb(255, 255, 255);stroke-width:1px;stroke-linecap:butt;stroke-linejoin:miter;opacity:1;font-family:&quot;Anthropic Sans&quot;, -apple-system, BlinkMacSystemFont, &quot;Segoe UI&quot;, sans-serif;font-size:16px;font-weight:400;text-anchor:start;dominant-baseline:auto"/>
    <path d="M64.922 10.179C65.201 9.564 66.063 9.548 66.360 10.153L70.190 17.939C70.450 18.468 70.074 19.090 69.488 19.101L62.068 19.236C61.483 19.247 61.088 18.638 61.332 18.101L64.922 10.179Z" style="fill:rgb(118, 101, 192);stroke:none;color:rgb(255, 255, 255);stroke-width:1px;stroke-linecap:butt;stroke-linejoin:miter;opacity:1;font-family:&quot;Anthropic Sans&quot;, -apple-system, BlinkMacSystemFont, &quot;Segoe UI&quot;, sans-serif;font-size:16px;font-weight:400;text-anchor:start;dominant-baseline:auto"/>
    <path d="M57.738 10.057C57.990 9.415 58.872 9.367 59.185 9.978L63.323 18.040C63.589 18.559 63.234 19.184 62.655 19.215L55.195 19.618C54.617 19.650 54.202 19.067 54.416 18.522L57.738 10.057Z" style="fill:rgb(118, 101, 192);stroke:none;color:rgb(255, 255, 255);stroke-width:1px;stroke-linecap:butt;stroke-linejoin:miter;opacity:1;font-family:&quot;Anthropic Sans&quot;, -apple-system, BlinkMacSystemFont, &quot;Segoe UI&quot;, sans-serif;font-size:16px;font-weight:400;text-anchor:start;dominant-baseline:auto"/>
  </g>

  <!-- Círculo externo -->
  <circle cx="68.488" cy="71.495" r="55" fill="url(#g0)" stroke="#766BCA" style="stroke:rgb(118, 107, 202);color:rgb(255, 255, 255);stroke-width:1px;stroke-linecap:butt;stroke-linejoin:miter;opacity:1;font-family:&quot;Anthropic Sans&quot;, -apple-system, BlinkMacSystemFont, &quot;Segoe UI&quot;, sans-serif;font-size:16px;font-weight:400;text-anchor:start;dominant-baseline:auto"/>
  <!-- Círculo interno -->
  <circle cx="68.488" cy="71.495" r="47" fill="url(#g1)" stroke="#766BCA" style="stroke:rgb(118, 107, 202);color:rgb(255, 255, 255);stroke-width:1px;stroke-linecap:butt;stroke-linejoin:miter;opacity:1;font-family:&quot;Anthropic Sans&quot;, -apple-system, BlinkMacSystemFont, &quot;Segoe UI&quot;, sans-serif;font-size:16px;font-weight:400;text-anchor:start;dominant-baseline:auto"/>

  <!-- Estrelas ao redor -->
  <g fill="#766BCA" style="fill:rgb(118, 107, 202);stroke:none;color:rgb(255, 255, 255);stroke-width:1px;stroke-linecap:butt;stroke-linejoin:miter;opacity:1;font-family:&quot;Anthropic Sans&quot;, -apple-system, BlinkMacSystemFont, &quot;Segoe UI&quot;, sans-serif;font-size:16px;font-weight:400;text-anchor:start;dominant-baseline:auto">
    <polygon points="68.988,16.995 69.662,19.068 71.841,19.068 70.078,20.350 70.752,22.422 68.988,21.141 67.225,22.422 67.898,20.350 66.135,19.068 68.315,19.068" style="fill:rgb(118, 107, 202);stroke:none;color:rgb(255, 255, 255);stroke-width:1px;stroke-linecap:butt;stroke-linejoin:miter;opacity:1;font-family:&quot;Anthropic Sans&quot;, -apple-system, BlinkMacSystemFont, &quot;Segoe UI&quot;, sans-serif;font-size:16px;font-weight:400;text-anchor:start;dominant-baseline:auto"/>
    <polygon points="55.988,17.995 56.662,20.068 58.841,20.068 57.078,21.350 57.752,23.422 55.988,22.141 54.225,23.422 54.898,21.350 53.135,20.068 55.315,20.068" style="fill:rgb(118, 107, 202);stroke:none;color:rgb(255, 255, 255);stroke-width:1px;stroke-linecap:butt;stroke-linejoin:miter;opacity:1;font-family:&quot;Anthropic Sans&quot;, -apple-system, BlinkMacSystemFont, &quot;Segoe UI&quot;, sans-serif;font-size:16px;font-weight:400;text-anchor:start;dominant-baseline:auto"/>
    <polygon points="42.988,22.995 43.662,25.068 45.841,25.068 44.078,26.350 44.752,28.422 42.988,27.141 41.225,28.422 41.898,26.350 40.135,25.068 42.315,25.068" style="fill:rgb(118, 107, 202);stroke:none;color:rgb(255, 255, 255);stroke-width:1px;stroke-linecap:butt;stroke-linejoin:miter;opacity:1;font-family:&quot;Anthropic Sans&quot;, -apple-system, BlinkMacSystemFont, &quot;Segoe UI&quot;, sans-serif;font-size:16px;font-weight:400;text-anchor:start;dominant-baseline:auto"/>
    <polygon points="29.988,34.995 30.662,37.068 32.841,37.068 31.078,38.350 31.752,40.422 29.988,39.141 28.225,40.422 28.898,38.350 27.135,37.068 29.315,37.068" style="fill:rgb(118, 107, 202);stroke:none;color:rgb(255, 255, 255);stroke-width:1px;stroke-linecap:butt;stroke-linejoin:miter;opacity:1;font-family:&quot;Anthropic Sans&quot;, -apple-system, BlinkMacSystemFont, &quot;Segoe UI&quot;, sans-serif;font-size:16px;font-weight:400;text-anchor:start;dominant-baseline:auto"/>
    <polygon points="19.988,51.995 20.662,54.068 22.841,54.068 21.078,55.350 21.752,57.422 19.988,56.141 18.225,57.422 18.898,55.350 17.135,54.068 19.315,54.068" style="fill:rgb(118, 107, 202);stroke:none;color:rgb(255, 255, 255);stroke-width:1px;stroke-linecap:butt;stroke-linejoin:miter;opacity:1;font-family:&quot;Anthropic Sans&quot;, -apple-system, BlinkMacSystemFont, &quot;Segoe UI&quot;, sans-serif;font-size:16px;font-weight:400;text-anchor:start;dominant-baseline:auto"/>
    <polygon points="16.988,68.995 17.662,71.068 19.841,71.068 18.078,72.350 18.752,74.422 16.988,73.141 15.225,74.422 15.898,72.350 14.135,71.068 16.315,71.068" style="fill:rgb(118, 107, 202);stroke:none;color:rgb(255, 255, 255);stroke-width:1px;stroke-linecap:butt;stroke-linejoin:miter;opacity:1;font-family:&quot;Anthropic Sans&quot;, -apple-system, BlinkMacSystemFont, &quot;Segoe UI&quot;, sans-serif;font-size:16px;font-weight:400;text-anchor:start;dominant-baseline:auto"/>
    <polygon points="20.988,85.995 21.662,88.068 23.841,88.068 22.078,89.350 22.752,91.422 20.988,90.141 19.225,91.422 19.898,89.350 18.135,88.068 20.315,88.068" style="fill:rgb(118, 107, 202);stroke:none;color:rgb(255, 255, 255);stroke-width:1px;stroke-linecap:butt;stroke-linejoin:miter;opacity:1;font-family:&quot;Anthropic Sans&quot;, -apple-system, BlinkMacSystemFont, &quot;Segoe UI&quot;, sans-serif;font-size:16px;font-weight:400;text-anchor:start;dominant-baseline:auto"/>
    <polygon points="29.988,101.995 30.662,104.068 32.841,104.068 31.078,105.350 31.752,107.422 29.988,106.141 28.225,107.422 28.898,105.350 27.135,104.068 29.315,104.068" style="fill:rgb(118, 107, 202);stroke:none;color:rgb(255, 255, 255);stroke-width:1px;stroke-linecap:butt;stroke-linejoin:miter;opacity:1;font-family:&quot;Anthropic Sans&quot;, -apple-system, BlinkMacSystemFont, &quot;Segoe UI&quot;, sans-serif;font-size:16px;font-weight:400;text-anchor:start;dominant-baseline:auto"/>
    <polygon points="42.988,112.995 43.662,115.068 45.841,115.068 44.078,116.350 44.752,118.422 42.988,117.141 41.225,118.422 41.898,116.350 40.135,115.068 42.315,115.068" style="fill:rgb(118, 107, 202);stroke:none;color:rgb(255, 255, 255);stroke-width:1px;stroke-linecap:butt;stroke-linejoin:miter;opacity:1;font-family:&quot;Anthropic Sans&quot;, -apple-system, BlinkMacSystemFont, &quot;Segoe UI&quot;, sans-serif;font-size:16px;font-weight:400;text-anchor:start;dominant-baseline:auto"/>
    <polygon points="55.988,118.995 56.662,121.068 58.841,121.068 57.078,122.350 57.752,124.422 55.988,123.141 54.225,124.422 54.898,122.350 53.135,121.068 55.315,121.068" style="fill:rgb(118, 107, 202);stroke:none;color:rgb(255, 255, 255);stroke-width:1px;stroke-linecap:butt;stroke-linejoin:miter;opacity:1;font-family:&quot;Anthropic Sans&quot;, -apple-system, BlinkMacSystemFont, &quot;Segoe UI&quot;, sans-serif;font-size:16px;font-weight:400;text-anchor:start;dominant-baseline:auto"/>
    <polygon points="68.988,120.995 69.662,123.068 71.841,123.068 70.078,124.350 70.752,126.422 68.988,125.141 67.225,126.422 67.898,124.350 66.135,123.068 68.315,123.068" style="fill:rgb(118, 107, 202);stroke:none;color:rgb(255, 255, 255);stroke-width:1px;stroke-linecap:butt;stroke-linejoin:miter;opacity:1;font-family:&quot;Anthropic Sans&quot;, -apple-system, BlinkMacSystemFont, &quot;Segoe UI&quot;, sans-serif;font-size:16px;font-weight:400;text-anchor:start;dominant-baseline:auto"/>
    <polygon points="81.988,17.995 82.662,20.068 84.841,20.068 83.078,21.350 83.752,23.422 81.988,22.141 80.225,23.422 80.898,21.350 79.135,20.068 81.315,20.068" style="fill:rgb(118, 107, 202);stroke:none;color:rgb(255, 255, 255);stroke-width:1px;stroke-linecap:butt;stroke-linejoin:miter;opacity:1;font-family:&quot;Anthropic Sans&quot;, -apple-system, BlinkMacSystemFont, &quot;Segoe UI&quot;, sans-serif;font-size:16px;font-weight:400;text-anchor:start;dominant-baseline:auto"/>
    <polygon points="94.988,22.995 95.662,25.068 97.841,25.068 96.078,26.350 96.752,28.422 94.988,27.141 93.225,28.422 93.898,26.350 92.135,25.068 94.315,25.068" style="fill:rgb(118, 107, 202);stroke:none;color:rgb(255, 255, 255);stroke-width:1px;stroke-linecap:butt;stroke-linejoin:miter;opacity:1;font-family:&quot;Anthropic Sans&quot;, -apple-system, BlinkMacSystemFont, &quot;Segoe UI&quot;, sans-serif;font-size:16px;font-weight:400;text-anchor:start;dominant-baseline:auto"/>
    <polygon points="106.988,34.995 107.662,37.068 109.841,37.068 108.078,38.350 108.752,40.422 106.988,39.141 105.225,40.422 105.898,38.350 104.135,37.068 106.315,37.068" style="fill:rgb(118, 107, 202);stroke:none;color:rgb(255, 255, 255);stroke-width:1px;stroke-linecap:butt;stroke-linejoin:miter;opacity:1;font-family:&quot;Anthropic Sans&quot;, -apple-system, BlinkMacSystemFont, &quot;Segoe UI&quot;, sans-serif;font-size:16px;font-weight:400;text-anchor:start;dominant-baseline:auto"/>
    <polygon points="116.988,51.995 117.662,54.068 119.841,54.068 118.078,55.350 118.752,57.422 116.988,56.141 115.225,57.422 115.898,55.350 114.135,54.068 116.315,54.068" style="fill:rgb(118, 107, 202);stroke:none;color:rgb(255, 255, 255);stroke-width:1px;stroke-linecap:butt;stroke-linejoin:miter;opacity:1;font-family:&quot;Anthropic Sans&quot;, -apple-system, BlinkMacSystemFont, &quot;Segoe UI&quot;, sans-serif;font-size:16px;font-weight:400;text-anchor:start;dominant-baseline:auto"/>
    <polygon points="119.988,68.995 120.662,71.068 122.841,71.068 121.078,72.350 121.752,74.422 119.988,73.141 118.225,74.422 118.898,72.350 117.135,71.068 119.315,71.068" style="fill:rgb(118, 107, 202);stroke:none;color:rgb(255, 255, 255);stroke-width:1px;stroke-linecap:butt;stroke-linejoin:miter;opacity:1;font-family:&quot;Anthropic Sans&quot;, -apple-system, BlinkMacSystemFont, &quot;Segoe UI&quot;, sans-serif;font-size:16px;font-weight:400;text-anchor:start;dominant-baseline:auto"/>
    <polygon points="115.988,85.995 116.662,88.068 118.841,88.068 117.078,89.350 117.752,91.422 115.988,90.141 114.225,91.422 114.898,89.350 113.135,88.068 115.315,88.068" style="fill:rgb(118, 107, 202);stroke:none;color:rgb(255, 255, 255);stroke-width:1px;stroke-linecap:butt;stroke-linejoin:miter;opacity:1;font-family:&quot;Anthropic Sans&quot;, -apple-system, BlinkMacSystemFont, &quot;Segoe UI&quot;, sans-serif;font-size:16px;font-weight:400;text-anchor:start;dominant-baseline:auto"/>
    <polygon points="106.988,101.995 107.662,104.068 109.841,104.068 108.078,105.350 108.752,107.422 106.988,106.141 105.225,107.422 105.898,105.350 104.135,104.068 106.315,104.068" style="fill:rgb(118, 107, 202);stroke:none;color:rgb(255, 255, 255);stroke-width:1px;stroke-linecap:butt;stroke-linejoin:miter;opacity:1;font-family:&quot;Anthropic Sans&quot;, -apple-system, BlinkMacSystemFont, &quot;Segoe UI&quot;, sans-serif;font-size:16px;font-weight:400;text-anchor:start;dominant-baseline:auto"/>
    <polygon points="94.988,112.995 95.662,115.068 97.841,115.068 96.078,116.350 96.752,118.422 94.988,117.141 93.225,118.422 93.898,116.350 92.135,115.068 94.315,115.068" style="fill:rgb(118, 107, 202);stroke:none;color:rgb(255, 255, 255);stroke-width:1px;stroke-linecap:butt;stroke-linejoin:miter;opacity:1;font-family:&quot;Anthropic Sans&quot;, -apple-system, BlinkMacSystemFont, &quot;Segoe UI&quot;, sans-serif;font-size:16px;font-weight:400;text-anchor:start;dominant-baseline:auto"/>
    <polygon points="81.988,117.995 82.662,120.068 84.841,120.068 83.078,121.350 83.752,123.422 81.988,122.141 80.225,123.422 80.898,121.350 79.135,120.068 81.315,120.068" style="fill:rgb(118, 107, 202);stroke:none;color:rgb(255, 255, 255);stroke-width:1px;stroke-linecap:butt;stroke-linejoin:miter;opacity:1;font-family:&quot;Anthropic Sans&quot;, -apple-system, BlinkMacSystemFont, &quot;Segoe UI&quot;, sans-serif;font-size:16px;font-weight:400;text-anchor:start;dominant-baseline:auto"/>
  </g>
</svg>